<svg width="16" height="16" viewBox="0 0 16 16" fill="none" xmlns="http://www.w3.org/2000/svg">
<g clip-path="url(#clip0_115_3097)">
<path d="M2.83333 0.00158691H13.1667C14.7333 0.00158691 16 1.30047 16 2.90697V13.0929C16 14.6994 14.7333 15.9983 13.1667 15.9983H2.83333C1.26667 15.9983 0 14.6994 0 13.0929V2.90697C0 1.30047 1.26667 0.00158691 2.83333 0.00158691Z" fill="#470137"/>
<path d="M8.4133 4.20592L6.4133 7.58984L8.54664 11.1789C8.55997 11.2062 8.56664 11.2335 8.55997 11.2609C8.5533 11.2882 8.52664 11.2677 8.48664 11.2746H6.95997C6.8533 11.2746 6.77997 11.2677 6.7333 11.1994C6.5933 10.9122 6.44664 10.632 6.30664 10.3448C6.16664 10.0646 6.0133 9.77743 5.8533 9.48347C5.6933 9.18952 5.5333 8.89556 5.3733 8.59477H5.35997C5.21997 8.88872 5.06664 9.18268 4.9133 9.47664C4.75997 9.77059 4.60664 10.0646 4.45997 10.3517C4.30664 10.6388 4.1533 10.9327 3.99997 11.213C3.9733 11.2814 3.91997 11.2882 3.84664 11.2882H2.37997C2.3533 11.2882 2.3333 11.3019 2.3333 11.2677C2.32664 11.2404 2.3333 11.213 2.34664 11.1925L4.41997 7.70606L2.39997 4.19909C2.37997 4.17174 2.3733 4.1444 2.38664 4.13073C2.39997 4.11022 2.42664 4.10338 2.4533 4.10338H3.96664C3.99997 4.10338 4.0333 4.11022 4.05997 4.11705C4.08664 4.13073 4.10664 4.15123 4.12664 4.17858C4.2533 4.47254 4.39997 4.76649 4.5533 5.06045C4.7133 5.35441 4.86664 5.64153 5.0333 5.92865C5.1933 6.21577 5.33997 6.50289 5.47997 6.79685H5.4933C5.6333 6.49605 5.77997 6.2021 5.92664 5.91497C6.0733 5.62785 6.22664 5.34073 6.37997 5.05361C6.5333 4.76649 6.67997 4.47254 6.82664 4.19225C6.8333 4.16491 6.84664 4.13756 6.86664 4.12389C6.8933 4.11022 6.91997 4.10338 6.9533 4.11022H8.35997C8.3933 4.10338 8.42664 4.12389 8.4333 4.15807C8.43997 4.16491 8.42664 4.19225 8.4133 4.20592ZM11.4933 11.4181C11 11.425 10.5066 11.3224 10.06 11.1105C9.63997 10.9122 9.2933 10.5841 9.0533 10.1808C8.80664 9.76376 8.68664 9.24421 8.68664 8.62211C8.67997 8.11623 8.80664 7.61719 9.0533 7.17967C9.30664 6.73532 9.6733 6.36616 10.1133 6.12006C10.58 5.85345 11.14 5.72356 11.8 5.72356C11.8333 5.72356 11.88 5.72356 11.94 5.7304C12 5.73723 12.0666 5.73723 12.1466 5.74407V3.58383C12.1466 3.53598 12.1666 3.50863 12.2133 3.50863H13.5666C13.6 3.50179 13.6266 3.52914 13.6333 3.55648V10.0782C13.6333 10.2013 13.64 10.338 13.6466 10.4884C13.66 10.632 13.6666 10.7687 13.6733 10.8849C13.6733 10.9327 13.6533 10.9738 13.6066 10.9943C13.26 11.1447 12.8933 11.2541 12.52 11.3224C12.18 11.3839 11.84 11.4181 11.4933 11.4181ZM12.1466 10.0509V7.04295C12.0866 7.02928 12.0266 7.0156 11.9666 7.00877C11.8933 7.00193 11.82 6.9951 11.7466 6.9951C11.4866 6.9951 11.2266 7.04978 10.9933 7.17284C10.7666 7.28905 10.5733 7.45996 10.4266 7.67872C10.28 7.89747 10.2066 8.19143 10.2066 8.54691C10.2 8.78618 10.24 9.02545 10.32 9.25104C10.3866 9.43562 10.4866 9.59969 10.62 9.73641C10.7466 9.85946 10.9 9.95517 11.0733 10.0099C11.2533 10.0714 11.44 10.0987 11.6266 10.0987C11.7266 10.0987 11.82 10.0919 11.9066 10.0851C11.9933 10.0919 12.0666 10.0782 12.1466 10.0509Z" fill="#FF61F6"/>
</g>
<defs>
<clipPath id="clip0_115_3097">
<rect width="16" height="16" fill="white"/>
</clipPath>
</defs>
</svg>
