<svg width="24" height="23" viewBox="0 0 24 23" fill="none" xmlns="http://www.w3.org/2000/svg">
<path d="M24.15 14V13.85H24H21.15V11V10.85H21H15H14.85V11V13.85H12H11.85V14V23V23.15H12H24H24.15V23V14ZM21 20.15H21.15V20V18.65H22.35V21.35H13.65V18.65H14.85V20V20.15H15H16.5H16.65V20V18.65H19.35V20V20.15H19.5H21ZM13.65 11V10.85H13.5H6.15V6.5V6.35H6H3.15V2.15H17.85V9.5V9.65H18H19.5H19.65V9.5V0.5V0.35H19.5H1.5H1.35V0.5V6.35H0H-0.15V6.5V15.5V15.65H0H6H6.15V15.5V12.65H8.85V13.85H7.5H7.35V14V15.5V15.65H7.5H10.5H10.65V15.5V12.65H13.5H13.65V12.5V11ZM19.35 13.85H16.65V12.65H19.35V13.85ZM13.65 15.65H22.35V16.85H13.65V15.65ZM4.35 8.15V13.85H1.65V8.15H4.35Z" fill="white" stroke="white" stroke-width="0.3"/>
</svg>
