<svg width="240" height="88" viewBox="0 0 240 88" fill="none" xmlns="http://www.w3.org/2000/svg">
<path d="M21.8182 4.35646C14.5455 3.5768 7.27273 4.9752 3.63636 5.6744C1.52562 6.08026 0 7.92716 0 10.0766V66C0 78.1503 9.84973 88 22 88H218C230.15 88 240 78.1503 240 66V9.39783C240 7.52891 237.906 6.42481 236.364 7.48085C232.727 9.97129 225.455 14.9522 218.182 15.4156C210.909 15.879 203.636 11.825 196.364 7.5145C189.091 3.20396 181.818 -1.36312 174.545 0.381021C167.273 2.12516 160 10.1805 152.727 12.9159C145.455 15.6512 138.182 13.0666 130.909 17.7465C123.636 22.4264 116.364 34.3707 109.091 40.9265C101.818 47.4823 94.5454 48.6495 87.2727 48.3255C80 48.0014 72.7273 46.1859 65.4545 39.7251C58.1818 33.2642 50.9091 22.1579 43.6364 15.1259C36.3636 8.09385 29.0909 5.13612 21.8182 4.35646Z" fill="url(#paint0_linear_1_98)"/>
<defs>
<linearGradient id="paint0_linear_1_98" x1="228.214" y1="44.6197" x2="37.0619" y2="153.229" gradientUnits="userSpaceOnUse">
<stop stop-color="#9F3FC5"/>
<stop offset="1" stop-color="#D858AA"/>
</linearGradient>
</defs>
</svg>
