<svg width="239" height="107" viewBox="0 0 239 107" fill="none" xmlns="http://www.w3.org/2000/svg">
<path d="M5.95021 15.0008L0.991699 6.71829V91C0.991699 99.8366 8.15515 107 16.9917 107H223C231.837 107 239 99.8366 239 91V20.0544C239 17.4373 235.743 16.2339 234.041 18.222C229.083 24.015 219.166 35.6009 209.249 39.9356C199.332 44.2704 189.415 41.3538 179.498 36.076C169.581 30.7981 159.664 23.1589 149.747 21.9386C139.83 20.7182 129.913 25.9167 119.996 26.2869C110.079 26.6571 100.162 22.1991 90.2448 14.4186C80.3278 6.6382 70.4108 -4.46461 60.4938 1.98082C50.5768 8.42624 40.6597 32.4199 30.7427 36.1342C20.8257 39.8485 10.9087 23.2834 5.95021 15.0008Z" fill="url(#paint0_linear_1_76)"/>
<defs>
<linearGradient id="paint0_linear_1_76" x1="204.322" y1="40.8625" x2="17.8393" y2="86.125" gradientUnits="userSpaceOnUse">
<stop stop-color="#E35D75"/>
<stop offset="1" stop-color="#DE8482"/>
</linearGradient>
</defs>
</svg>
