<svg width="240" height="88" viewBox="0 0 240 88" fill="none" xmlns="http://www.w3.org/2000/svg">
<path fill-rule="evenodd" clip-rule="evenodd" d="M0 72C0 80.8366 7.16344 88 16 88H224C232.837 88 240 80.8366 240 72V62.4817C240 53.6451 232.395 45.9593 224.577 50.078C222.775 51.0273 221.231 52.047 219.819 52.9798C216.101 55.4353 213.294 57.2886 209.094 55.6715C205.218 54.1795 201.259 48.9406 197.17 43.5296C191.692 36.2808 185.981 28.7231 179.924 29.4499C175.627 29.9655 172.117 24.7133 167.97 18.507C161.908 9.43592 154.485 -1.67317 141.25 0.211054C131.92 1.53934 123.621 8.66189 115.822 15.355C104.989 24.6521 95.1222 33.1206 84.7981 24.0798C72.9096 13.669 67.2889 13.9063 59.2029 14.2478C55.2117 14.4163 50.6199 14.6102 44.3773 13.5615C34.6426 11.9262 27.7269 21.2293 20.8614 30.465C18.5033 33.6371 16.1512 36.8012 13.6928 39.5115C7.70173 46.1163 0 54.5065 0 63.4237V72Z" fill="url(#paint0_linear_1_103)"/>
<defs>
<linearGradient id="paint0_linear_1_103" x1="131.873" y1="29.0213" x2="-93.3558" y2="129.617" gradientUnits="userSpaceOnUse">
<stop stop-color="#1083D6"/>
<stop offset="0.998978" stop-color="#6FCBE7"/>
</linearGradient>
</defs>
</svg>
