<svg width="24" height="26" viewBox="0 0 24 26" fill="none" xmlns="http://www.w3.org/2000/svg">
<path d="M15.6666 21L17.5 22.7778V25" stroke="#0DA036" stroke-width="2" stroke-linecap="round" stroke-linejoin="round"/>
<path d="M8.33325 21L6.49992 22.7778V25" stroke="#0DA036" stroke-width="2" stroke-linecap="round" stroke-linejoin="round"/>
<path d="M18.4167 16.1111H21.1667L23.0001 17.8889" stroke="#0DA036" stroke-width="2" stroke-linecap="round" stroke-linejoin="round"/>
<path d="M18.4167 9.88889H21.1667L23.0001 8.11111" stroke="#0DA036" stroke-width="2" stroke-linecap="round" stroke-linejoin="round"/>
<path d="M5.58337 9.88889H2.83337L1.00004 8.11111" stroke="#0DA036" stroke-width="2" stroke-linecap="round" stroke-linejoin="round"/>
<path d="M5.58337 16.1111H2.83337L1.00004 17.8889" stroke="#0DA036" stroke-width="2" stroke-linecap="round" stroke-linejoin="round"/>
<path d="M9.24996 3.66667L7.41663 1" stroke="#0DA036" stroke-width="2" stroke-linecap="round" stroke-linejoin="round"/>
<path d="M14.75 3.66667L16.5833 1" stroke="#0DA036" stroke-width="2" stroke-linecap="round" stroke-linejoin="round"/>
<mask id="path-9-inside-1_106_476" fill="white">
<path fill-rule="evenodd" clip-rule="evenodd" d="M12.9179 5.5096C12.6181 5.46666 12.3117 5.44444 12 5.44444C11.7456 5.44444 11.4947 5.45925 11.248 5.48805C11.2495 5.51043 11.2502 5.53302 11.2502 5.55578L11.2502 22.2224C11.2502 22.2451 11.2495 22.2675 11.248 22.2897C11.4947 22.3185 11.7456 22.3333 12 22.3333C12.3117 22.3333 12.6181 22.3111 12.9179 22.2682C12.9172 22.253 12.9169 22.2378 12.9169 22.2224L12.9169 5.55578C12.9169 5.5403 12.9172 5.5249 12.9179 5.5096ZM14.9169 21.6336C16.9944 20.5715 18.4167 18.4102 18.4167 15.9167V11.8611C18.4167 9.36761 16.9944 7.2063 14.9169 6.14419L14.9169 21.6336ZM5.58337 11.8611C5.58337 9.30133 7.08227 7.09164 9.25024 6.06184L9.25024 21.7159C7.08227 20.6861 5.58337 18.4764 5.58337 15.9167V11.8611Z"/>
</mask>
<path d="M12.9179 5.5096L14.9159 5.60041L14.9983 3.78716L13.2015 3.5298L12.9179 5.5096ZM11.248 5.48805L11.0161 3.50154L9.1254 3.72226L9.25245 5.62153L11.248 5.48805ZM11.2502 5.55578L9.25024 5.55578V5.55578L11.2502 5.55578ZM11.2502 22.2224H13.2502H11.2502ZM11.248 22.2897L9.25242 22.1572L9.12629 24.0556L11.0161 24.2762L11.248 22.2897ZM12.9179 22.2682L13.2015 24.248L14.9975 23.9907L14.9159 22.1782L12.9179 22.2682ZM12.9169 22.2224H14.9169H12.9169ZM12.9169 5.55578L10.9169 5.55578V5.55578L12.9169 5.55578ZM14.9169 21.6336H12.9169V24.9023L15.8273 23.4144L14.9169 21.6336ZM14.9169 6.14419L15.8273 4.3634L12.9169 2.87552V6.14419L14.9169 6.14419ZM9.25024 6.06184L11.2502 6.06184V2.89767L8.39212 4.25529L9.25024 6.06184ZM9.25024 21.7159L8.39212 23.5225L11.2502 24.8801L11.2502 21.7159H9.25024ZM13.2015 3.5298C12.8081 3.47345 12.4069 3.44444 12 3.44444V7.44444C12.2165 7.44444 12.4282 7.45987 12.6343 7.48939L13.2015 3.5298ZM12 3.44444C11.668 3.44444 11.3396 3.46377 11.0161 3.50154L11.4799 7.47456C11.6498 7.45473 11.8233 7.44444 12 7.44444V3.44444ZM9.25245 5.62153C9.25097 5.59951 9.25024 5.57758 9.25024 5.55578H13.2502C13.2502 5.48845 13.248 5.42135 13.2435 5.35456L9.25245 5.62153ZM9.25024 5.55578L9.25025 22.2224H13.2502L13.2502 5.55578L9.25024 5.55578ZM9.25025 22.2224C9.25025 22.2008 9.25096 22.179 9.25242 22.1572L13.2436 22.4223C13.248 22.356 13.2502 22.2893 13.2502 22.2224H9.25025ZM11.0161 24.2762C11.3396 24.314 11.668 24.3333 12 24.3333V20.3333C11.8233 20.3333 11.6498 20.323 11.4799 20.3032L11.0161 24.2762ZM12 24.3333C12.4069 24.3333 12.8081 24.3043 13.2015 24.248L12.6343 20.2884C12.4282 20.3179 12.2165 20.3333 12 20.3333V24.3333ZM14.9159 22.1782C14.9165 22.193 14.9169 22.2078 14.9169 22.2224H10.9169C10.9169 22.2678 10.9179 22.313 10.9199 22.3581L14.9159 22.1782ZM14.9169 22.2224L14.9169 5.55578L10.9169 5.55578L10.9169 22.2224H14.9169ZM14.9169 5.55578C14.9169 5.57062 14.9165 5.5855 14.9159 5.60041L10.92 5.41879C10.9179 5.46431 10.9169 5.50998 10.9169 5.55578H14.9169ZM15.8273 23.4144C18.5474 22.0237 20.4167 19.1902 20.4167 15.9167H16.4167C16.4167 17.6301 15.4414 19.1192 14.0065 19.8528L15.8273 23.4144ZM20.4167 15.9167V11.8611H16.4167V15.9167H20.4167ZM20.4167 11.8611C20.4167 8.58755 18.5474 5.75403 15.8273 4.3634L14.0065 7.92497C15.4414 8.65857 16.4167 10.1477 16.4167 11.8611H20.4167ZM12.9169 6.14419L12.9169 21.6336H16.9169L16.9169 6.14419L12.9169 6.14419ZM8.39212 4.25529C5.55306 5.60386 3.58337 8.50047 3.58337 11.8611H7.58337C7.58337 10.1022 8.61147 8.57942 10.1084 7.86839L8.39212 4.25529ZM11.2502 21.7159L11.2502 6.06184L7.25024 6.06184L7.25024 21.7159H11.2502ZM3.58337 15.9167C3.58337 19.2773 5.55306 22.1739 8.39212 23.5225L10.1084 19.9094C8.61147 19.1984 7.58337 17.6756 7.58337 15.9167H3.58337ZM3.58337 11.8611V15.9167H7.58337V11.8611H3.58337Z" fill="#0DA036" mask="url(#path-9-inside-1_106_476)"/>
</svg>
