<svg width="22" height="25" viewBox="0 0 22 25" fill="none" xmlns="http://www.w3.org/2000/svg">
<path d="M13.9971 19.4534L15.5856 21.0419V23.0275" stroke="white" stroke-width="2" stroke-linecap="round" stroke-linejoin="round"/>
<path d="M7.64307 19.4534L6.05455 21.0419V23.0275" stroke="white" stroke-width="2" stroke-linecap="round" stroke-linejoin="round"/>
<path d="M16.3799 15.085H18.7627L20.3512 16.6735" stroke="white" stroke-width="2" stroke-linecap="round" stroke-linejoin="round"/>
<path d="M16.3799 9.52515H18.7627L20.3512 7.93663" stroke="white" stroke-width="2" stroke-linecap="round" stroke-linejoin="round"/>
<path d="M5.26025 9.52515H2.87748L1.28897 7.93663" stroke="white" stroke-width="2" stroke-linecap="round" stroke-linejoin="round"/>
<path d="M5.26025 15.085H2.87748L1.28897 16.6735" stroke="white" stroke-width="2" stroke-linecap="round" stroke-linejoin="round"/>
<path d="M8.43727 3.96529L6.84875 1.58252" stroke="white" stroke-width="2" stroke-linecap="round" stroke-linejoin="round"/>
<path d="M13.2027 3.96529L14.7913 1.58252" stroke="white" stroke-width="2" stroke-linecap="round" stroke-linejoin="round"/>
<mask id="path-9-inside-1_262_258" fill="white">
<path fill-rule="evenodd" clip-rule="evenodd" d="M11.6254 5.61162C11.3625 5.57346 11.0936 5.55371 10.8201 5.55371C10.6853 5.55371 10.5516 5.55851 10.4192 5.56794C10.4312 5.62999 10.4375 5.69409 10.4375 5.75966L10.4375 20.4391C10.4375 20.5045 10.4313 20.5685 10.4193 20.6304C10.5516 20.6398 10.6853 20.6446 10.8201 20.6446C11.0936 20.6446 11.3624 20.6249 11.6254 20.5867C11.6182 20.5385 11.6146 20.4892 11.6146 20.4391L11.6146 5.75966C11.6146 5.70936 11.6183 5.65992 11.6254 5.61162ZM13.6146 19.8923C15.2683 18.929 16.3799 17.1367 16.3799 15.0848V11.1135C16.3799 9.06163 15.2683 7.26936 13.6146 6.30599L13.6146 19.8923ZM5.26025 11.1135C5.26025 8.89554 6.55902 6.9809 8.43754 6.08863L8.43754 20.1097C6.55902 19.2174 5.26025 17.3028 5.26025 15.0848V11.1135Z"/>
</mask>
<path d="M11.6254 5.61162L13.6038 5.9052L13.8983 3.92047L11.9126 3.63235L11.6254 5.61162ZM10.4192 5.56794L10.277 3.573L8.02561 3.73341L8.45585 5.94917L10.4192 5.56794ZM10.4375 5.75966H8.43754V5.75966L10.4375 5.75966ZM10.4375 20.4391H12.4375H10.4375ZM10.4193 20.6304L8.45576 20.25L8.02664 22.465L10.2771 22.6253L10.4193 20.6304ZM11.6254 20.5867L11.9126 22.566L13.8974 22.278L13.6038 20.2939L11.6254 20.5867ZM11.6146 20.4391H13.6146H11.6146ZM11.6146 5.75966H9.61455V5.75966L11.6146 5.75966ZM13.6146 19.8923H11.6146L11.6146 23.372L14.6213 21.6205L13.6146 19.8923ZM13.6146 6.30599L14.6213 4.57782L11.6146 2.82633L11.6146 6.30599L13.6146 6.30599ZM8.43754 6.08863L10.4375 6.08863V2.92451L7.57944 4.28207L8.43754 6.08863ZM8.43754 20.1097L7.57944 21.9163L10.4375 23.2738V20.1097H8.43754ZM11.9126 3.63235C11.5549 3.58043 11.19 3.55371 10.8201 3.55371V7.55371C10.9972 7.55371 11.1701 7.56649 11.3382 7.59089L11.9126 3.63235ZM10.8201 3.55371C10.6378 3.55371 10.4567 3.5602 10.277 3.573L10.5613 7.56288C10.6465 7.55682 10.7327 7.55371 10.8201 7.55371V3.55371ZM8.45585 5.94917C8.44363 5.88626 8.43754 5.8227 8.43754 5.75966H12.4375C12.4375 5.56547 12.4188 5.37373 12.3825 5.18672L8.45585 5.94917ZM8.43754 5.75966L8.43754 20.4391H12.4375L12.4375 5.75966L8.43754 5.75966ZM8.43754 20.4391C8.43754 20.3762 8.4436 20.3127 8.45576 20.25L12.3827 21.0108C12.4189 20.8242 12.4375 20.6328 12.4375 20.4391H8.43754ZM10.2771 22.6253C10.4568 22.6381 10.6378 22.6446 10.8201 22.6446V18.6446C10.7327 18.6446 10.6465 18.6415 10.5614 18.6354L10.2771 22.6253ZM10.8201 22.6446C11.19 22.6446 11.5548 22.6179 11.9126 22.566L11.3382 18.6074C11.1701 18.6318 10.9972 18.6446 10.8201 18.6446V22.6446ZM13.6038 20.2939C13.611 20.3424 13.6146 20.3909 13.6146 20.4391H9.61455C9.61455 20.5875 9.62549 20.7347 9.64692 20.8795L13.6038 20.2939ZM13.6146 20.4391L13.6146 5.75966L9.61455 5.75966L9.61455 20.4391H13.6146ZM13.6146 5.75966C13.6146 5.80794 13.611 5.85663 13.6038 5.9052L9.6471 5.31803C9.62556 5.46322 9.61455 5.61078 9.61455 5.75966H13.6146ZM14.6213 21.6205C16.8647 20.3136 18.3799 17.8773 18.3799 15.0848H14.3799C14.3799 16.3961 13.6719 17.5443 12.6078 18.1642L14.6213 21.6205ZM18.3799 15.0848V11.1135H14.3799V15.0848H18.3799ZM18.3799 11.1135C18.3799 8.32102 16.8647 5.88471 14.6213 4.57782L12.6078 8.03415C13.6719 8.65401 14.3799 9.80224 14.3799 11.1135H18.3799ZM11.6146 6.30599L11.6146 19.8923H15.6146L15.6146 6.30599L11.6146 6.30599ZM7.57944 4.28207C5.02983 5.4931 3.26025 8.09467 3.26025 11.1135H7.26025C7.26025 9.69641 8.08822 8.4687 9.29563 7.89519L7.57944 4.28207ZM10.4375 20.1097L10.4375 6.08863L6.43754 6.08863L6.43754 20.1097H10.4375ZM3.26025 15.0848C3.26025 18.1037 5.02983 20.7052 7.57944 21.9163L9.29563 18.3031C8.08822 17.7296 7.26025 16.5019 7.26025 15.0848H3.26025ZM3.26025 11.1135V15.0848H7.26025V11.1135H3.26025Z" fill="white" mask="url(#path-9-inside-1_262_258)"/>
</svg>
