<svg width="25" height="27" viewBox="0 0 25 27" fill="none" xmlns="http://www.w3.org/2000/svg">
<path d="M15.8148 21.8333L17.6667 23.6852V26" stroke="#797D90" stroke-width="2" stroke-linecap="round" stroke-linejoin="round"/>
<path d="M8.40735 21.8333L6.5555 23.6852V26" stroke="#797D90" stroke-width="2" stroke-linecap="round" stroke-linejoin="round"/>
<path d="M18.5927 16.7407H21.3704L23.2223 18.5926" stroke="#797D90" stroke-width="2" stroke-linecap="round" stroke-linejoin="round"/>
<path d="M18.5927 10.2593H21.3704L23.2223 8.4074" stroke="#797D90" stroke-width="2" stroke-linecap="round" stroke-linejoin="round"/>
<path d="M5.62964 10.2593H2.85186L1.00001 8.4074" stroke="#797D90" stroke-width="2" stroke-linecap="round" stroke-linejoin="round"/>
<path d="M5.62964 16.7407H2.85186L1.00001 18.5926" stroke="#797D90" stroke-width="2" stroke-linecap="round" stroke-linejoin="round"/>
<path d="M9.3333 3.77777L7.48145 0.999996" stroke="#797D90" stroke-width="2" stroke-linecap="round" stroke-linejoin="round"/>
<path d="M14.8889 3.77777L16.7407 0.999996" stroke="#797D90" stroke-width="2" stroke-linecap="round" stroke-linejoin="round"/>
<mask id="path-9-inside-1_1_3136" fill="white">
<path fill-rule="evenodd" clip-rule="evenodd" d="M13.0373 5.6953C12.7348 5.65202 12.4256 5.62963 12.1111 5.62963C11.8478 5.62963 11.5882 5.64532 11.3332 5.67583C11.3334 5.68517 11.3336 5.69454 11.3336 5.70394L11.3336 23.1484C11.3336 23.1576 11.3335 23.1668 11.3332 23.176C11.5883 23.2065 11.8479 23.2222 12.1111 23.2222C12.4256 23.2222 12.7348 23.1998 13.0373 23.1565C13.0373 23.1538 13.0373 23.1511 13.0373 23.1484L13.0373 5.70394C13.0373 5.70106 13.0373 5.69818 13.0373 5.6953ZM15.0373 22.5257C17.1468 21.4565 18.5926 19.2675 18.5926 16.7407V12.1111C18.5926 9.58437 17.1468 7.39533 15.0373 6.32619L15.0373 22.5257ZM5.62964 12.1111C5.62964 9.52546 7.14368 7.29344 9.33358 6.25325L9.33358 22.5986C7.14369 21.5584 5.62964 19.3264 5.62964 16.7407V12.1111Z"/>
</mask>
<path d="M13.0373 5.6953L15.0372 5.71222L15.052 3.96321L13.3206 3.71547L13.0373 5.6953ZM11.3332 5.67583L11.0957 3.68999L9.28364 3.90673L9.33395 5.73097L11.3332 5.67583ZM11.3336 5.70394L9.33358 5.70394V5.70394L11.3336 5.70394ZM11.3336 23.1484H13.3336H11.3336ZM11.3332 23.176L9.33394 23.1218L9.2845 24.9452L11.0957 25.1619L11.3332 23.176ZM13.0373 23.1565L13.3206 25.1364L15.0514 24.8887L15.0372 23.1404L13.0373 23.1565ZM13.0373 23.1484H15.0373H13.0373ZM13.0373 5.70394H11.0373V5.70394L13.0373 5.70394ZM15.0373 22.5257H13.0373V25.7815L15.9414 24.3096L15.0373 22.5257ZM15.0373 6.32619L15.9414 4.54224L13.0373 3.07033V6.32619L15.0373 6.32619ZM9.33358 6.25325L11.3336 6.25325V3.08909L8.47547 4.44669L9.33358 6.25325ZM9.33358 22.5986L8.47547 24.4052L11.3336 25.7628V22.5986H9.33358ZM13.3206 3.71547C12.9246 3.6588 12.5207 3.62963 12.1111 3.62963V7.62963C12.3305 7.62963 12.5451 7.64524 12.754 7.67514L13.3206 3.71547ZM12.1111 3.62963C11.7683 3.62963 11.4294 3.65007 11.0957 3.68999L11.5707 7.66168C11.7471 7.64058 11.9274 7.62963 12.1111 7.62963V3.62963ZM9.33395 5.73097C9.3337 5.72195 9.33358 5.71294 9.33358 5.70394H13.3336C13.3336 5.67614 13.3332 5.64839 13.3324 5.6207L9.33395 5.73097ZM9.33358 5.70394L9.33358 23.1484H13.3336L13.3336 5.70394L9.33358 5.70394ZM9.33358 23.1484C9.33358 23.1395 9.3337 23.1307 9.33394 23.1218L13.3325 23.2302C13.3332 23.203 13.3336 23.1757 13.3336 23.1484H9.33358ZM11.0957 25.1619C11.4294 25.2018 11.7683 25.2222 12.1111 25.2222V21.2222C11.9274 21.2222 11.7471 21.2113 11.5707 21.1902L11.0957 25.1619ZM12.1111 25.2222C12.5207 25.2222 12.9246 25.193 13.3206 25.1364L12.754 21.1767C12.5451 21.2066 12.3305 21.2222 12.1111 21.2222V25.2222ZM15.0372 23.1404C15.0373 23.1433 15.0373 23.146 15.0373 23.1484H11.0373C11.0373 23.1562 11.0373 23.1643 11.0374 23.1727L15.0372 23.1404ZM15.0373 23.1484L15.0373 5.70394L11.0373 5.70394L11.0373 23.1484H15.0373ZM15.0373 5.70394C15.0373 5.70679 15.0373 5.70956 15.0372 5.71222L11.0374 5.67838C11.0373 5.6868 11.0373 5.69532 11.0373 5.70394H15.0373ZM15.9414 24.3096C18.6969 22.9131 20.5926 20.05 20.5926 16.7407H16.5926C16.5926 18.4849 15.5966 20 14.1331 20.7417L15.9414 24.3096ZM20.5926 16.7407V12.1111H16.5926V16.7407H20.5926ZM20.5926 12.1111C20.5926 8.80181 18.6969 5.93879 15.9414 4.54224L14.1331 8.11015C15.5966 8.85188 16.5926 10.3669 16.5926 12.1111H20.5926ZM13.0373 6.32619L13.0373 22.5257H17.0373L17.0373 6.32619L13.0373 6.32619ZM8.47547 4.44669C5.61448 5.80566 3.62964 8.7246 3.62964 12.1111H7.62964C7.62964 10.3263 8.67289 8.78123 10.1917 8.0598L8.47547 4.44669ZM11.3336 22.5986L11.3336 6.25325L7.33358 6.25325L7.33358 22.5986H11.3336ZM3.62964 16.7407C3.62964 20.1272 5.61448 23.0462 8.47547 24.4052L10.1917 20.792C8.67289 20.0706 7.62964 18.5255 7.62964 16.7407H3.62964ZM3.62964 12.1111V16.7407H7.62964V12.1111H3.62964Z" fill="#797D90" mask="url(#path-9-inside-1_1_3136)"/>
</svg>
