<svg width="20" height="20" viewBox="0 0 20 20" fill="none" xmlns="http://www.w3.org/2000/svg">
<path d="M5.41665 16.6666C4.15276 16.6666 3.07276 16.2291 2.17665 15.3541C1.28054 14.4791 0.832758 13.4096 0.833314 12.1458C0.833314 11.0624 1.1597 10.0971 1.81248 9.24992C2.46526 8.4027 3.31942 7.86103 4.37498 7.62492C4.7222 6.34714 5.41665 5.31242 6.45831 4.52075C7.49998 3.72909 8.68054 3.33325 9.99998 3.33325C11.625 3.33325 13.0036 3.89936 14.1358 5.03158C15.268 6.16381 15.8339 7.54214 15.8333 9.16658C16.7916 9.2777 17.5869 9.69103 18.2191 10.4066C18.8514 11.1221 19.1672 11.9588 19.1666 12.9166C19.1666 13.9583 18.8019 14.8438 18.0725 15.5733C17.343 16.3027 16.4578 16.6671 15.4166 16.6666H5.41665ZM8.62498 13.8124C8.73609 13.8124 8.84026 13.7949 8.93748 13.7599C9.0347 13.7249 9.12498 13.666 9.20831 13.5833L12.7291 10.0624C12.8958 9.89575 12.9791 9.69436 12.9791 9.45825C12.9791 9.22214 12.8958 9.02075 12.7291 8.85408C12.5625 8.68742 12.3611 8.60409 12.125 8.60409C11.8889 8.60409 11.6875 8.68742 11.5208 8.85408L8.60415 11.7708L7.43748 10.6041C7.27081 10.4374 7.07637 10.3541 6.85415 10.3541C6.63192 10.3541 6.43748 10.4374 6.27081 10.6041C6.10415 10.7708 6.02081 10.9688 6.02081 11.1983C6.02081 11.4277 6.10415 11.6255 6.27081 11.7916L8.04165 13.5833C8.12498 13.6666 8.21526 13.7258 8.31248 13.7608C8.4097 13.7958 8.51387 13.813 8.62498 13.8124ZM5.41665 14.9999H15.4166C16 14.9999 16.493 14.7985 16.8958 14.3958C17.2986 13.993 17.5 13.4999 17.5 12.9166C17.5 12.3333 17.2986 11.8402 16.8958 11.4374C16.493 11.0346 16 10.8333 15.4166 10.8333H14.1666V9.16658C14.1666 8.01381 13.7603 7.03131 12.9475 6.21908C12.1347 5.40686 11.1522 5.00047 9.99998 4.99992C8.8472 4.99992 7.86442 5.40631 7.05165 6.21908C6.23887 7.03186 5.83276 8.01436 5.83331 9.16658H5.41665C4.61109 9.16658 3.92359 9.45131 3.35415 10.0208C2.7847 10.5902 2.49998 11.2777 2.49998 12.0833C2.49998 12.8888 2.7847 13.5763 3.35415 14.1458C3.92359 14.7152 4.61109 14.9999 5.41665 14.9999Z" fill="white"/>
</svg>
