<svg width="16" height="18" viewBox="0 0 16 18" fill="none" xmlns="http://www.w3.org/2000/svg">
<path d="M3.75 18C3.23438 18 2.79312 17.8043 2.42625 17.413C2.05875 17.021 1.875 16.55 1.875 16V3C1.60938 3 1.38656 2.90433 1.20656 2.713C1.02719 2.521 0.9375 2.28333 0.9375 2C0.9375 1.71667 1.02719 1.479 1.20656 1.287C1.38656 1.09567 1.60938 1 1.875 1H5.625C5.625 0.716667 5.715 0.479 5.895 0.287C6.07438 0.0956666 6.29688 0 6.5625 0H10.3125C10.5781 0 10.8009 0.0956666 10.9809 0.287C11.1603 0.479 11.25 0.716667 11.25 1H15C15.2656 1 15.4881 1.09567 15.6675 1.287C15.8475 1.479 15.9375 1.71667 15.9375 2C15.9375 2.28333 15.8475 2.521 15.6675 2.713C15.4881 2.90433 15.2656 3 15 3V16C15 16.55 14.8166 17.021 14.4497 17.413C14.0822 17.8043 13.6406 18 13.125 18H3.75ZM3.75 3V16H13.125V3H3.75ZM5.625 13C5.625 13.2833 5.715 13.5207 5.895 13.712C6.07438 13.904 6.29688 14 6.5625 14C6.82813 14 7.05094 13.904 7.23094 13.712C7.41031 13.5207 7.5 13.2833 7.5 13V6C7.5 5.71667 7.41031 5.479 7.23094 5.287C7.05094 5.09567 6.82813 5 6.5625 5C6.29688 5 6.07438 5.09567 5.895 5.287C5.715 5.479 5.625 5.71667 5.625 6V13ZM9.375 13C9.375 13.2833 9.465 13.5207 9.645 13.712C9.82438 13.904 10.0469 14 10.3125 14C10.5781 14 10.8009 13.904 10.9809 13.712C11.1603 13.5207 11.25 13.2833 11.25 13V6C11.25 5.71667 11.1603 5.479 10.9809 5.287C10.8009 5.09567 10.5781 5 10.3125 5C10.0469 5 9.82438 5.09567 9.645 5.287C9.465 5.479 9.375 5.71667 9.375 6V13Z" fill="#A8AEC7"/>
</svg>
