<svg width="12" height="12" viewBox="0 0 12 12" fill="none" xmlns="http://www.w3.org/2000/svg">
<path d="M7.91948 8.50557L6.58365 9.84724L6.58365 4.25307C6.58365 4.09836 6.52219 3.94999 6.41279 3.84059C6.3034 3.7312 6.15503 3.66974 6.00032 3.66974C5.84561 3.66974 5.69723 3.7312 5.58784 3.84059C5.47844 3.94999 5.41698 4.09836 5.41698 4.25307L5.41698 9.84724L4.08115 8.50557C4.02692 8.4509 3.9624 8.4075 3.89132 8.37788C3.82023 8.34827 3.74399 8.33302 3.66698 8.33302C3.58997 8.33302 3.51373 8.34827 3.44265 8.37788C3.37156 8.4075 3.30704 8.4509 3.25282 8.50557C3.19814 8.5598 3.15474 8.62432 3.12513 8.6954C3.09551 8.76649 3.08027 8.84273 3.08027 8.91974C3.08027 8.99674 3.09551 9.07299 3.12513 9.14407C3.15474 9.21516 3.19814 9.27968 3.25282 9.3339L5.58615 11.6672C5.64163 11.7203 5.70704 11.762 5.77865 11.7897C5.92067 11.8481 6.07996 11.8481 6.22198 11.7897C6.29359 11.762 6.359 11.7203 6.41448 11.6672L8.74782 9.3339C8.8022 9.27952 8.84535 9.21495 8.87478 9.14388C8.90422 9.07282 8.91937 8.99666 8.91937 8.91974C8.91937 8.84282 8.90422 8.76666 8.87478 8.69559C8.84535 8.62453 8.8022 8.55996 8.74782 8.50557C8.69343 8.45118 8.62886 8.40804 8.55779 8.3786C8.48673 8.34917 8.41057 8.33402 8.33365 8.33402C8.25673 8.33402 8.18057 8.34917 8.1095 8.3786C8.03844 8.40804 7.97387 8.45118 7.91948 8.50557ZM0.750315 4.8364C0.905025 4.8364 1.0534 4.77495 1.16279 4.66555C1.27219 4.55615 1.33365 4.40778 1.33365 4.25307L1.33365 1.91974C1.33365 1.76503 1.39511 1.61665 1.5045 1.50726C1.6139 1.39786 1.76227 1.3364 1.91698 1.3364L10.0836 1.3364C10.2384 1.3364 10.3867 1.39786 10.4961 1.50726C10.6055 1.61666 10.667 1.76503 10.667 1.91974L10.667 4.25307C10.667 4.40778 10.7284 4.55615 10.8378 4.66555C10.9472 4.77495 11.0956 4.83641 11.2503 4.83641C11.405 4.83641 11.5534 4.77495 11.6628 4.66555C11.7722 4.55615 11.8336 4.40778 11.8336 4.25307L11.8336 1.91974C11.8336 1.45561 11.6493 1.01049 11.3211 0.682301C10.9929 0.354113 10.5478 0.169738 10.0836 0.169738L1.91698 0.169737C1.45285 0.169737 1.00773 0.354112 0.679545 0.682301C0.351356 1.01049 0.166983 1.45561 0.166982 1.91974L0.166981 4.25307C0.166981 4.40778 0.22844 4.55615 0.337836 4.66555C0.447232 4.77495 0.595606 4.8364 0.750315 4.8364Z" fill="white"/>
</svg>
