<svg width="18" height="19" viewBox="0 0 18 19" fill="none" xmlns="http://www.w3.org/2000/svg">
<path d="M1.75 18.8146C1.26875 18.8146 0.856625 18.6349 0.513625 18.2756C0.171208 17.9169 0 17.4854 0 16.9813V4.14792C0 3.64375 0.171208 3.212 0.513625 2.85267C0.856625 2.49394 1.26875 2.31458 1.75 2.31458H9.55937L7.80937 4.14792H1.75V16.9813H14V10.6104L15.75 8.77708V16.9813C15.75 17.4854 15.5788 17.9169 15.2364 18.2756C14.8934 18.6349 14.4812 18.8146 14 18.8146H1.75ZM11.5281 2.84167L12.775 4.125L7 10.175V11.4812H8.225L14.0219 5.40833L15.2687 6.69167L9.47187 12.7646C9.31146 12.9326 9.12566 13.0665 8.9145 13.1661C8.70275 13.2651 8.48021 13.3146 8.24687 13.3146H6.125C5.87708 13.3146 5.66942 13.2269 5.502 13.0515C5.334 12.8755 5.25 12.6576 5.25 12.3979V10.175C5.25 9.93056 5.29375 9.69742 5.38125 9.47558C5.46875 9.25436 5.59271 9.05972 5.75312 8.89167L11.5281 2.84167ZM15.2687 6.69167L11.5281 2.84167L13.7156 0.55C14.0656 0.183333 14.485 0 14.9739 0C15.4621 0 15.874 0.183333 16.2094 0.55L17.4344 1.85625C17.7698 2.20764 17.9375 2.63542 17.9375 3.13958C17.9375 3.64375 17.7698 4.07153 17.4344 4.42292L15.2687 6.69167Z" fill="#A8AEC7"/>
</svg>
