<svg width="26" height="26" viewBox="0 0 26 26" fill="none" xmlns="http://www.w3.org/2000/svg">
<path d="M14 26C7.3724 26 2 20.6276 2 14C2 7.3724 7.3724 2 14 2C20.6276 2 26 7.3724 26 14C26 20.6276 20.6276 26 14 26ZM11.252 23.2004C10.0681 20.6892 9.38225 17.9723 9.2324 15.2H4.4744C4.7079 17.0467 5.47271 18.7858 6.67588 20.206C7.87906 21.6263 9.46882 22.6665 11.252 23.2004ZM11.636 15.2C11.8172 18.1268 12.6536 20.876 14 23.3024C15.3828 20.8119 16.1905 18.0434 16.364 15.2H11.636ZM23.5256 15.2H18.7676C18.6178 17.9723 17.9319 20.6892 16.748 23.2004C18.5312 22.6665 20.1209 21.6263 21.3241 20.206C22.5273 18.7858 23.2921 17.0467 23.5256 15.2ZM4.4744 12.8H9.2324C9.38225 10.0277 10.0681 7.31082 11.252 4.7996C9.46882 5.33345 7.87906 6.3737 6.67588 7.79395C5.47271 9.2142 4.7079 10.9533 4.4744 12.8ZM11.6372 12.8H16.3628C16.1897 9.95672 15.3824 7.18824 14 4.6976C12.6172 7.18814 11.8095 9.95662 11.636 12.8H11.6372ZM16.748 4.7996C17.9319 7.31082 18.6178 10.0277 18.7676 12.8H23.5256C23.2921 10.9533 22.5273 9.2142 21.3241 7.79395C20.1209 6.3737 18.5312 5.33345 16.748 4.7996Z" fill="#797D90"/>
</svg>
