<svg width="21" height="22" viewBox="0 0 21 22" fill="none" xmlns="http://www.w3.org/2000/svg">
<path d="M10.8461 21.9998C5.23814 21.9998 0.692261 17.2473 0.692261 11.3844C0.692261 5.52155 5.23814 0.769043 10.8461 0.769043C16.4541 0.769043 21 5.52155 21 11.3844C21 17.2473 16.4541 21.9998 10.8461 21.9998ZM8.52088 19.5232C7.51911 17.3018 6.93878 14.8983 6.81199 12.446H2.78598C2.98356 14.0796 3.6307 15.618 4.64878 16.8744C5.66685 18.1308 7.01203 19.051 8.52088 19.5232ZM8.8458 12.446C8.99912 15.0351 9.70685 17.467 10.8461 19.6135C12.0162 17.4103 12.6996 14.9613 12.8464 12.446H8.8458ZM18.9062 12.446H14.8802C14.7534 14.8983 14.1731 17.3018 13.1713 19.5232C14.6802 19.051 16.0254 18.1308 17.0434 16.8744C18.0615 15.618 18.7087 14.0796 18.9062 12.446ZM2.78598 10.3229H6.81199C6.93878 7.87051 7.51911 5.46708 8.52088 3.24561C7.01203 3.71787 5.66685 4.63809 4.64878 5.89446C3.6307 7.15084 2.98356 8.68929 2.78598 10.3229ZM8.84682 10.3229H12.8454C12.6989 7.80768 12.0158 5.35864 10.8461 3.15538C9.67606 5.35855 8.99258 7.8076 8.8458 10.3229H8.84682ZM13.1713 3.24561C14.1731 5.46708 14.7534 7.87051 14.8802 10.3229H18.9062C18.7087 8.68929 18.0615 7.15084 17.0434 5.89446C16.0254 4.63809 14.6802 3.71787 13.1713 3.24561Z" fill="white"/>
</svg>
