<svg width="26" height="26" viewBox="0 0 26 26" fill="none" xmlns="http://www.w3.org/2000/svg">
<mask id="path-1-outside-1_120_14" maskUnits="userSpaceOnUse" x="0" y="0" width="26" height="26" fill="black">
<rect fill="white" width="26" height="26"/>
<path fill-rule="evenodd" clip-rule="evenodd" d="M4.32308 1H4.23077C3.808 1 3.44431 1 3.12308 1.07569C2.62579 1.1945 2.17111 1.44867 1.80941 1.81001C1.44771 2.17135 1.19312 2.62577 1.07385 3.12291C1 3.44412 1 3.80594 1 4.23052V8.84555C1 9.26829 1 9.63195 1.07569 9.95316C1.19452 10.4504 1.4487 10.9051 1.81007 11.2667C2.17144 11.6284 2.6259 11.883 3.12308 12.0022C3.44431 12.0761 3.80615 12.0761 4.23077 12.0761H8.84615C9.26892 12.0761 9.63262 12.0761 9.95385 12.0004C10.4511 11.8816 10.9058 11.6274 11.2675 11.2661C11.6292 10.9047 11.8838 10.4503 12.0031 9.95316C12.0769 9.63195 12.0769 9.27013 12.0769 8.84555V4.23052C12.0769 3.80778 12.0769 3.44412 12.0012 3.12291C11.8824 2.62566 11.6282 2.17102 11.2668 1.80935C10.9055 1.44768 10.451 1.19311 9.95385 1.07384C9.63262 1 9.27077 1 8.84615 1H4.32308ZM3.55323 2.87186C3.63262 2.8534 3.75631 2.84601 4.32308 2.84601H8.75385C9.32246 2.84601 9.44431 2.85155 9.52369 2.87186C9.68953 2.91151 9.84115 2.99632 9.96172 3.11689C10.0823 3.23745 10.1671 3.38905 10.2068 3.55488C10.2252 3.63241 10.2308 3.75425 10.2308 4.32282V8.75325C10.2308 9.32182 10.2252 9.44366 10.2049 9.52304C10.1653 9.68886 10.0804 9.84047 9.95987 9.96103C9.8393 10.0816 9.68769 10.1664 9.52185 10.2061C9.44615 10.2227 9.32431 10.2301 8.75385 10.2301H4.32308C3.75446 10.2301 3.63262 10.2245 3.55323 10.2042C3.38739 10.1646 3.23578 10.0797 3.1152 9.95918C2.99463 9.83862 2.90981 9.68702 2.87015 9.52119C2.85354 9.4455 2.84615 9.32367 2.84615 8.75325V4.32282C2.84615 3.75425 2.85169 3.63241 2.872 3.55303C2.91166 3.38721 2.99648 3.23561 3.11705 3.11504C3.23762 2.99448 3.38924 2.90967 3.55508 2.87001L3.55323 2.87186ZM17.2462 1H17.1538C16.7311 1 16.3674 1 16.0462 1.07569C15.5489 1.1945 15.0942 1.44867 14.7325 1.81001C14.3708 2.17135 14.1162 2.62577 13.9969 3.12291C13.9231 3.44412 13.9231 3.80594 13.9231 4.23052V8.84555C13.9231 9.26829 13.9231 9.63195 13.9988 9.95316C14.1176 10.4504 14.3718 10.9051 14.7331 11.2667C15.0945 11.6284 15.549 11.883 16.0462 12.0022C16.3674 12.0761 16.7292 12.0761 17.1538 12.0761H21.7692C22.192 12.0761 22.5557 12.0761 22.8769 12.0004C23.3742 11.8816 23.8289 11.6274 24.1906 11.2661C24.5523 10.9047 24.8069 10.4503 24.9262 9.95316C25 9.63195 25 9.27013 25 8.84555V4.23052C25 3.80778 25 3.44412 24.9243 3.12291C24.8055 2.62566 24.5513 2.17102 24.1899 1.80935C23.8286 1.44768 23.3741 1.19311 22.8769 1.07384C22.5557 1 22.1938 1 21.7692 1H17.2462ZM16.4763 2.87186C16.5557 2.8534 16.6794 2.84601 17.2462 2.84601H21.6769C22.2455 2.84601 22.3674 2.85155 22.4468 2.87186C22.6126 2.91151 22.7642 2.99632 22.8848 3.11689C23.0054 3.23745 23.0902 3.38905 23.1298 3.55488C23.1483 3.63241 23.1538 3.75425 23.1538 4.32282V8.75325C23.1538 9.32182 23.1465 9.44366 23.128 9.52304C23.0883 9.68886 23.0035 9.84047 22.8829 9.96103C22.7624 10.0816 22.6108 10.1664 22.4449 10.2061C22.3674 10.2245 22.2455 10.2301 21.6769 10.2301H17.2462C16.6775 10.2301 16.5557 10.2245 16.4763 10.2042C16.3105 10.1646 16.1589 10.0797 16.0383 9.95918C15.9177 9.83862 15.8329 9.68702 15.7932 9.52119C15.7766 9.4455 15.7692 9.32367 15.7692 8.75325V4.32282C15.7692 3.75425 15.7748 3.63241 15.7951 3.55303C15.8347 3.38721 15.9196 3.23561 16.0401 3.11504C16.1607 2.99448 16.3123 2.90967 16.4782 2.87001L16.4763 2.87186ZM4.23077 13.9221H8.84615C9.26892 13.9221 9.63262 13.9221 9.95385 13.9978C10.4511 14.1166 10.9058 14.3707 11.2675 14.7321C11.6292 15.0934 11.8838 15.5479 12.0031 16.045C12.0769 16.3662 12.0769 16.728 12.0769 17.1526V21.7676C12.0769 22.1904 12.0769 22.554 12.0012 22.8752C11.8824 23.3725 11.6282 23.8271 11.2668 24.1888C10.9055 24.5505 10.451 24.805 9.95385 24.9243C9.63262 24.9982 9.27077 24.9982 8.84615 24.9982H4.23077C3.808 24.9982 3.44431 24.9982 3.12308 24.9225C2.62579 24.8036 2.17111 24.5495 1.80941 24.1881C1.44771 23.8268 1.19312 23.3724 1.07385 22.8752C1 22.554 1 22.1922 1 21.7676V17.1526C1 16.7299 1 16.3662 1.07569 16.045C1.19452 15.5477 1.4487 15.0931 1.81007 14.7314C2.17144 14.3698 2.6259 14.1152 3.12308 13.9959C3.44431 13.9221 3.80615 13.9221 4.23077 13.9221ZM4.32308 15.7681C3.75446 15.7681 3.63262 15.7736 3.55323 15.7939C3.38739 15.8336 3.23578 15.9184 3.1152 16.039C2.99463 16.1595 2.90981 16.3111 2.87015 16.477C2.85354 16.5526 2.84615 16.6745 2.84615 17.2449V21.6753C2.84615 22.2439 2.85169 22.3657 2.872 22.4451C2.91166 22.6109 2.99648 22.7625 3.11705 22.8831C3.23762 23.0037 3.38924 23.0885 3.55508 23.1281C3.63262 23.1466 3.75446 23.1521 4.32308 23.1521H8.75385C9.32246 23.1521 9.44431 23.1448 9.52369 23.1263C9.68953 23.0866 9.84115 23.0018 9.96172 22.8813C10.0823 22.7607 10.1671 22.6091 10.2068 22.4433C10.2252 22.3657 10.2308 22.2439 10.2308 21.6753V17.2449C10.2308 16.6763 10.2252 16.5545 10.2049 16.4751C10.1653 16.3093 10.0804 16.1577 9.95987 16.0371C9.8393 15.9166 9.68769 15.8317 9.52185 15.7921C9.44615 15.7755 9.32431 15.7681 8.75385 15.7681H4.32308ZM17.2462 13.9221H17.1538C16.7311 13.9221 16.3674 13.9221 16.0462 13.9978C15.5489 14.1166 15.0942 14.3707 14.7325 14.7321C14.3708 15.0934 14.1162 15.5479 13.9969 16.045C13.9231 16.3662 13.9231 16.728 13.9231 17.1526V21.7676C13.9231 22.1904 13.9231 22.554 13.9988 22.8752C14.1176 23.3725 14.3718 23.8271 14.7331 24.1888C15.0945 24.5505 15.549 24.805 16.0462 24.9243C16.3674 25 16.7311 25 17.1538 25H21.7692C22.192 25 22.5557 25 22.8769 24.9243C23.3739 24.8052 23.8282 24.5509 24.1895 24.1896C24.5509 23.8283 24.8052 23.374 24.9243 22.8771C25 22.5559 25 22.1922 25 21.7695V17.1526C25 16.7299 25 16.3662 24.9243 16.045C24.8055 15.5477 24.5513 15.0931 24.1899 14.7314C23.8286 14.3698 23.3741 14.1152 22.8769 13.9959C22.5557 13.9221 22.1938 13.9221 21.7692 13.9221H17.2462ZM16.4763 15.7939C16.5557 15.7755 16.6794 15.7681 17.2462 15.7681H21.6769C22.2455 15.7681 22.3674 15.7736 22.4468 15.7939C22.6126 15.8336 22.7642 15.9184 22.8848 16.039C23.0054 16.1595 23.0902 16.3111 23.1298 16.477C23.1483 16.5545 23.1538 16.6763 23.1538 17.2449V21.6753C23.1538 22.2439 23.1465 22.3657 23.128 22.4451C23.0883 22.6109 23.0035 22.7625 22.8829 22.8831C22.7624 23.0037 22.6108 23.0885 22.4449 23.1281C22.3674 23.1466 22.2455 23.1521 21.6769 23.1521H17.2462C16.6775 23.1521 16.5557 23.1448 16.4763 23.1263C16.3105 23.0866 16.1589 23.0018 16.0383 22.8813C15.9177 22.7607 15.8329 22.6091 15.7932 22.4433C15.7766 22.3676 15.7692 22.2458 15.7692 21.6753V17.2449C15.7692 16.6763 15.7748 16.5545 15.7951 16.4751C15.8347 16.3093 15.9196 16.1577 16.0401 16.0371C16.1607 15.9166 16.3123 15.8317 16.4782 15.7921L16.4763 15.7939Z"/>
</mask>
<path fill-rule="evenodd" clip-rule="evenodd" d="M4.32308 1H4.23077C3.808 1 3.44431 1 3.12308 1.07569C2.62579 1.1945 2.17111 1.44867 1.80941 1.81001C1.44771 2.17135 1.19312 2.62577 1.07385 3.12291C1 3.44412 1 3.80594 1 4.23052V8.84555C1 9.26829 1 9.63195 1.07569 9.95316C1.19452 10.4504 1.4487 10.9051 1.81007 11.2667C2.17144 11.6284 2.6259 11.883 3.12308 12.0022C3.44431 12.0761 3.80615 12.0761 4.23077 12.0761H8.84615C9.26892 12.0761 9.63262 12.0761 9.95385 12.0004C10.4511 11.8816 10.9058 11.6274 11.2675 11.2661C11.6292 10.9047 11.8838 10.4503 12.0031 9.95316C12.0769 9.63195 12.0769 9.27013 12.0769 8.84555V4.23052C12.0769 3.80778 12.0769 3.44412 12.0012 3.12291C11.8824 2.62566 11.6282 2.17102 11.2668 1.80935C10.9055 1.44768 10.451 1.19311 9.95385 1.07384C9.63262 1 9.27077 1 8.84615 1H4.32308ZM3.55323 2.87186C3.63262 2.8534 3.75631 2.84601 4.32308 2.84601H8.75385C9.32246 2.84601 9.44431 2.85155 9.52369 2.87186C9.68953 2.91151 9.84115 2.99632 9.96172 3.11689C10.0823 3.23745 10.1671 3.38905 10.2068 3.55488C10.2252 3.63241 10.2308 3.75425 10.2308 4.32282V8.75325C10.2308 9.32182 10.2252 9.44366 10.2049 9.52304C10.1653 9.68886 10.0804 9.84047 9.95987 9.96103C9.8393 10.0816 9.68769 10.1664 9.52185 10.2061C9.44615 10.2227 9.32431 10.2301 8.75385 10.2301H4.32308C3.75446 10.2301 3.63262 10.2245 3.55323 10.2042C3.38739 10.1646 3.23578 10.0797 3.1152 9.95918C2.99463 9.83862 2.90981 9.68702 2.87015 9.52119C2.85354 9.4455 2.84615 9.32367 2.84615 8.75325V4.32282C2.84615 3.75425 2.85169 3.63241 2.872 3.55303C2.91166 3.38721 2.99648 3.23561 3.11705 3.11504C3.23762 2.99448 3.38924 2.90967 3.55508 2.87001L3.55323 2.87186ZM17.2462 1H17.1538C16.7311 1 16.3674 1 16.0462 1.07569C15.5489 1.1945 15.0942 1.44867 14.7325 1.81001C14.3708 2.17135 14.1162 2.62577 13.9969 3.12291C13.9231 3.44412 13.9231 3.80594 13.9231 4.23052V8.84555C13.9231 9.26829 13.9231 9.63195 13.9988 9.95316C14.1176 10.4504 14.3718 10.9051 14.7331 11.2667C15.0945 11.6284 15.549 11.883 16.0462 12.0022C16.3674 12.0761 16.7292 12.0761 17.1538 12.0761H21.7692C22.192 12.0761 22.5557 12.0761 22.8769 12.0004C23.3742 11.8816 23.8289 11.6274 24.1906 11.2661C24.5523 10.9047 24.8069 10.4503 24.9262 9.95316C25 9.63195 25 9.27013 25 8.84555V4.23052C25 3.80778 25 3.44412 24.9243 3.12291C24.8055 2.62566 24.5513 2.17102 24.1899 1.80935C23.8286 1.44768 23.3741 1.19311 22.8769 1.07384C22.5557 1 22.1938 1 21.7692 1H17.2462ZM16.4763 2.87186C16.5557 2.8534 16.6794 2.84601 17.2462 2.84601H21.6769C22.2455 2.84601 22.3674 2.85155 22.4468 2.87186C22.6126 2.91151 22.7642 2.99632 22.8848 3.11689C23.0054 3.23745 23.0902 3.38905 23.1298 3.55488C23.1483 3.63241 23.1538 3.75425 23.1538 4.32282V8.75325C23.1538 9.32182 23.1465 9.44366 23.128 9.52304C23.0883 9.68886 23.0035 9.84047 22.8829 9.96103C22.7624 10.0816 22.6108 10.1664 22.4449 10.2061C22.3674 10.2245 22.2455 10.2301 21.6769 10.2301H17.2462C16.6775 10.2301 16.5557 10.2245 16.4763 10.2042C16.3105 10.1646 16.1589 10.0797 16.0383 9.95918C15.9177 9.83862 15.8329 9.68702 15.7932 9.52119C15.7766 9.4455 15.7692 9.32367 15.7692 8.75325V4.32282C15.7692 3.75425 15.7748 3.63241 15.7951 3.55303C15.8347 3.38721 15.9196 3.23561 16.0401 3.11504C16.1607 2.99448 16.3123 2.90967 16.4782 2.87001L16.4763 2.87186ZM4.23077 13.9221H8.84615C9.26892 13.9221 9.63262 13.9221 9.95385 13.9978C10.4511 14.1166 10.9058 14.3707 11.2675 14.7321C11.6292 15.0934 11.8838 15.5479 12.0031 16.045C12.0769 16.3662 12.0769 16.728 12.0769 17.1526V21.7676C12.0769 22.1904 12.0769 22.554 12.0012 22.8752C11.8824 23.3725 11.6282 23.8271 11.2668 24.1888C10.9055 24.5505 10.451 24.805 9.95385 24.9243C9.63262 24.9982 9.27077 24.9982 8.84615 24.9982H4.23077C3.808 24.9982 3.44431 24.9982 3.12308 24.9225C2.62579 24.8036 2.17111 24.5495 1.80941 24.1881C1.44771 23.8268 1.19312 23.3724 1.07385 22.8752C1 22.554 1 22.1922 1 21.7676V17.1526C1 16.7299 1 16.3662 1.07569 16.045C1.19452 15.5477 1.4487 15.0931 1.81007 14.7314C2.17144 14.3698 2.6259 14.1152 3.12308 13.9959C3.44431 13.9221 3.80615 13.9221 4.23077 13.9221ZM4.32308 15.7681C3.75446 15.7681 3.63262 15.7736 3.55323 15.7939C3.38739 15.8336 3.23578 15.9184 3.1152 16.039C2.99463 16.1595 2.90981 16.3111 2.87015 16.477C2.85354 16.5526 2.84615 16.6745 2.84615 17.2449V21.6753C2.84615 22.2439 2.85169 22.3657 2.872 22.4451C2.91166 22.6109 2.99648 22.7625 3.11705 22.8831C3.23762 23.0037 3.38924 23.0885 3.55508 23.1281C3.63262 23.1466 3.75446 23.1521 4.32308 23.1521H8.75385C9.32246 23.1521 9.44431 23.1448 9.52369 23.1263C9.68953 23.0866 9.84115 23.0018 9.96172 22.8813C10.0823 22.7607 10.1671 22.6091 10.2068 22.4433C10.2252 22.3657 10.2308 22.2439 10.2308 21.6753V17.2449C10.2308 16.6763 10.2252 16.5545 10.2049 16.4751C10.1653 16.3093 10.0804 16.1577 9.95987 16.0371C9.8393 15.9166 9.68769 15.8317 9.52185 15.7921C9.44615 15.7755 9.32431 15.7681 8.75385 15.7681H4.32308ZM17.2462 13.9221H17.1538C16.7311 13.9221 16.3674 13.9221 16.0462 13.9978C15.5489 14.1166 15.0942 14.3707 14.7325 14.7321C14.3708 15.0934 14.1162 15.5479 13.9969 16.045C13.9231 16.3662 13.9231 16.728 13.9231 17.1526V21.7676C13.9231 22.1904 13.9231 22.554 13.9988 22.8752C14.1176 23.3725 14.3718 23.8271 14.7331 24.1888C15.0945 24.5505 15.549 24.805 16.0462 24.9243C16.3674 25 16.7311 25 17.1538 25H21.7692C22.192 25 22.5557 25 22.8769 24.9243C23.3739 24.8052 23.8282 24.5509 24.1895 24.1896C24.5509 23.8283 24.8052 23.374 24.9243 22.8771C25 22.5559 25 22.1922 25 21.7695V17.1526C25 16.7299 25 16.3662 24.9243 16.045C24.8055 15.5477 24.5513 15.0931 24.1899 14.7314C23.8286 14.3698 23.3741 14.1152 22.8769 13.9959C22.5557 13.9221 22.1938 13.9221 21.7692 13.9221H17.2462ZM16.4763 15.7939C16.5557 15.7755 16.6794 15.7681 17.2462 15.7681H21.6769C22.2455 15.7681 22.3674 15.7736 22.4468 15.7939C22.6126 15.8336 22.7642 15.9184 22.8848 16.039C23.0054 16.1595 23.0902 16.3111 23.1298 16.477C23.1483 16.5545 23.1538 16.6763 23.1538 17.2449V21.6753C23.1538 22.2439 23.1465 22.3657 23.128 22.4451C23.0883 22.6109 23.0035 22.7625 22.8829 22.8831C22.7624 23.0037 22.6108 23.0885 22.4449 23.1281C22.3674 23.1466 22.2455 23.1521 21.6769 23.1521H17.2462C16.6775 23.1521 16.5557 23.1448 16.4763 23.1263C16.3105 23.0866 16.1589 23.0018 16.0383 22.8813C15.9177 22.7607 15.8329 22.6091 15.7932 22.4433C15.7766 22.3676 15.7692 22.2458 15.7692 21.6753V17.2449C15.7692 16.6763 15.7748 16.5545 15.7951 16.4751C15.8347 16.3093 15.9196 16.1577 16.0401 16.0371C16.1607 15.9166 16.3123 15.8317 16.4782 15.7921L16.4763 15.7939Z" fill="white"/>
<path fill-rule="evenodd" clip-rule="evenodd" d="M4.32308 1H4.23077C3.808 1 3.44431 1 3.12308 1.07569C2.62579 1.1945 2.17111 1.44867 1.80941 1.81001C1.44771 2.17135 1.19312 2.62577 1.07385 3.12291C1 3.44412 1 3.80594 1 4.23052V8.84555C1 9.26829 1 9.63195 1.07569 9.95316C1.19452 10.4504 1.4487 10.9051 1.81007 11.2667C2.17144 11.6284 2.6259 11.883 3.12308 12.0022C3.44431 12.0761 3.80615 12.0761 4.23077 12.0761H8.84615C9.26892 12.0761 9.63262 12.0761 9.95385 12.0004C10.4511 11.8816 10.9058 11.6274 11.2675 11.2661C11.6292 10.9047 11.8838 10.4503 12.0031 9.95316C12.0769 9.63195 12.0769 9.27013 12.0769 8.84555V4.23052C12.0769 3.80778 12.0769 3.44412 12.0012 3.12291C11.8824 2.62566 11.6282 2.17102 11.2668 1.80935C10.9055 1.44768 10.451 1.19311 9.95385 1.07384C9.63262 1 9.27077 1 8.84615 1H4.32308ZM3.55323 2.87186C3.63262 2.8534 3.75631 2.84601 4.32308 2.84601H8.75385C9.32246 2.84601 9.44431 2.85155 9.52369 2.87186C9.68953 2.91151 9.84115 2.99632 9.96172 3.11689C10.0823 3.23745 10.1671 3.38905 10.2068 3.55488C10.2252 3.63241 10.2308 3.75425 10.2308 4.32282V8.75325C10.2308 9.32182 10.2252 9.44366 10.2049 9.52304C10.1653 9.68886 10.0804 9.84047 9.95987 9.96103C9.8393 10.0816 9.68769 10.1664 9.52185 10.2061C9.44615 10.2227 9.32431 10.2301 8.75385 10.2301H4.32308C3.75446 10.2301 3.63262 10.2245 3.55323 10.2042C3.38739 10.1646 3.23578 10.0797 3.1152 9.95918C2.99463 9.83862 2.90981 9.68702 2.87015 9.52119C2.85354 9.4455 2.84615 9.32367 2.84615 8.75325V4.32282C2.84615 3.75425 2.85169 3.63241 2.872 3.55303C2.91166 3.38721 2.99648 3.23561 3.11705 3.11504C3.23762 2.99448 3.38924 2.90967 3.55508 2.87001L3.55323 2.87186ZM17.2462 1H17.1538C16.7311 1 16.3674 1 16.0462 1.07569C15.5489 1.1945 15.0942 1.44867 14.7325 1.81001C14.3708 2.17135 14.1162 2.62577 13.9969 3.12291C13.9231 3.44412 13.9231 3.80594 13.9231 4.23052V8.84555C13.9231 9.26829 13.9231 9.63195 13.9988 9.95316C14.1176 10.4504 14.3718 10.9051 14.7331 11.2667C15.0945 11.6284 15.549 11.883 16.0462 12.0022C16.3674 12.0761 16.7292 12.0761 17.1538 12.0761H21.7692C22.192 12.0761 22.5557 12.0761 22.8769 12.0004C23.3742 11.8816 23.8289 11.6274 24.1906 11.2661C24.5523 10.9047 24.8069 10.4503 24.9262 9.95316C25 9.63195 25 9.27013 25 8.84555V4.23052C25 3.80778 25 3.44412 24.9243 3.12291C24.8055 2.62566 24.5513 2.17102 24.1899 1.80935C23.8286 1.44768 23.3741 1.19311 22.8769 1.07384C22.5557 1 22.1938 1 21.7692 1H17.2462ZM16.4763 2.87186C16.5557 2.8534 16.6794 2.84601 17.2462 2.84601H21.6769C22.2455 2.84601 22.3674 2.85155 22.4468 2.87186C22.6126 2.91151 22.7642 2.99632 22.8848 3.11689C23.0054 3.23745 23.0902 3.38905 23.1298 3.55488C23.1483 3.63241 23.1538 3.75425 23.1538 4.32282V8.75325C23.1538 9.32182 23.1465 9.44366 23.128 9.52304C23.0883 9.68886 23.0035 9.84047 22.8829 9.96103C22.7624 10.0816 22.6108 10.1664 22.4449 10.2061C22.3674 10.2245 22.2455 10.2301 21.6769 10.2301H17.2462C16.6775 10.2301 16.5557 10.2245 16.4763 10.2042C16.3105 10.1646 16.1589 10.0797 16.0383 9.95918C15.9177 9.83862 15.8329 9.68702 15.7932 9.52119C15.7766 9.4455 15.7692 9.32367 15.7692 8.75325V4.32282C15.7692 3.75425 15.7748 3.63241 15.7951 3.55303C15.8347 3.38721 15.9196 3.23561 16.0401 3.11504C16.1607 2.99448 16.3123 2.90967 16.4782 2.87001L16.4763 2.87186ZM4.23077 13.9221H8.84615C9.26892 13.9221 9.63262 13.9221 9.95385 13.9978C10.4511 14.1166 10.9058 14.3707 11.2675 14.7321C11.6292 15.0934 11.8838 15.5479 12.0031 16.045C12.0769 16.3662 12.0769 16.728 12.0769 17.1526V21.7676C12.0769 22.1904 12.0769 22.554 12.0012 22.8752C11.8824 23.3725 11.6282 23.8271 11.2668 24.1888C10.9055 24.5505 10.451 24.805 9.95385 24.9243C9.63262 24.9982 9.27077 24.9982 8.84615 24.9982H4.23077C3.808 24.9982 3.44431 24.9982 3.12308 24.9225C2.62579 24.8036 2.17111 24.5495 1.80941 24.1881C1.44771 23.8268 1.19312 23.3724 1.07385 22.8752C1 22.554 1 22.1922 1 21.7676V17.1526C1 16.7299 1 16.3662 1.07569 16.045C1.19452 15.5477 1.4487 15.0931 1.81007 14.7314C2.17144 14.3698 2.6259 14.1152 3.12308 13.9959C3.44431 13.9221 3.80615 13.9221 4.23077 13.9221ZM4.32308 15.7681C3.75446 15.7681 3.63262 15.7736 3.55323 15.7939C3.38739 15.8336 3.23578 15.9184 3.1152 16.039C2.99463 16.1595 2.90981 16.3111 2.87015 16.477C2.85354 16.5526 2.84615 16.6745 2.84615 17.2449V21.6753C2.84615 22.2439 2.85169 22.3657 2.872 22.4451C2.91166 22.6109 2.99648 22.7625 3.11705 22.8831C3.23762 23.0037 3.38924 23.0885 3.55508 23.1281C3.63262 23.1466 3.75446 23.1521 4.32308 23.1521H8.75385C9.32246 23.1521 9.44431 23.1448 9.52369 23.1263C9.68953 23.0866 9.84115 23.0018 9.96172 22.8813C10.0823 22.7607 10.1671 22.6091 10.2068 22.4433C10.2252 22.3657 10.2308 22.2439 10.2308 21.6753V17.2449C10.2308 16.6763 10.2252 16.5545 10.2049 16.4751C10.1653 16.3093 10.0804 16.1577 9.95987 16.0371C9.8393 15.9166 9.68769 15.8317 9.52185 15.7921C9.44615 15.7755 9.32431 15.7681 8.75385 15.7681H4.32308ZM17.2462 13.9221H17.1538C16.7311 13.9221 16.3674 13.9221 16.0462 13.9978C15.5489 14.1166 15.0942 14.3707 14.7325 14.7321C14.3708 15.0934 14.1162 15.5479 13.9969 16.045C13.9231 16.3662 13.9231 16.728 13.9231 17.1526V21.7676C13.9231 22.1904 13.9231 22.554 13.9988 22.8752C14.1176 23.3725 14.3718 23.8271 14.7331 24.1888C15.0945 24.5505 15.549 24.805 16.0462 24.9243C16.3674 25 16.7311 25 17.1538 25H21.7692C22.192 25 22.5557 25 22.8769 24.9243C23.3739 24.8052 23.8282 24.5509 24.1895 24.1896C24.5509 23.8283 24.8052 23.374 24.9243 22.8771C25 22.5559 25 22.1922 25 21.7695V17.1526C25 16.7299 25 16.3662 24.9243 16.045C24.8055 15.5477 24.5513 15.0931 24.1899 14.7314C23.8286 14.3698 23.3741 14.1152 22.8769 13.9959C22.5557 13.9221 22.1938 13.9221 21.7692 13.9221H17.2462ZM16.4763 15.7939C16.5557 15.7755 16.6794 15.7681 17.2462 15.7681H21.6769C22.2455 15.7681 22.3674 15.7736 22.4468 15.7939C22.6126 15.8336 22.7642 15.9184 22.8848 16.039C23.0054 16.1595 23.0902 16.3111 23.1298 16.477C23.1483 16.5545 23.1538 16.6763 23.1538 17.2449V21.6753C23.1538 22.2439 23.1465 22.3657 23.128 22.4451C23.0883 22.6109 23.0035 22.7625 22.8829 22.8831C22.7624 23.0037 22.6108 23.0885 22.4449 23.1281C22.3674 23.1466 22.2455 23.1521 21.6769 23.1521H17.2462C16.6775 23.1521 16.5557 23.1448 16.4763 23.1263C16.3105 23.0866 16.1589 23.0018 16.0383 22.8813C15.9177 22.7607 15.8329 22.6091 15.7932 22.4433C15.7766 22.3676 15.7692 22.2458 15.7692 21.6753V17.2449C15.7692 16.6763 15.7748 16.5545 15.7951 16.4751C15.8347 16.3093 15.9196 16.1577 16.0401 16.0371C16.1607 15.9166 16.3123 15.8317 16.4782 15.7921L16.4763 15.7939Z" stroke="#797D90" stroke-width="0.4" mask="url(#path-1-outside-1_120_14)"/>
</svg>
