<svg width="22" height="23" viewBox="0 0 22 23" fill="none" xmlns="http://www.w3.org/2000/svg">
<mask id="path-1-outside-1_191_122" maskUnits="userSpaceOnUse" x="0" y="0" width="22" height="23" fill="black">
<rect fill="white" width="22" height="23"/>
<path fill-rule="evenodd" clip-rule="evenodd" d="M3.76923 1H3.69231C3.34 1 3.03692 1 2.76923 1.06623C2.35482 1.17019 1.97592 1.39258 1.67451 1.70876C1.37309 2.02493 1.16093 2.42255 1.06154 2.85755C1 3.1386 1 3.4552 1 3.82671V7.86486C1 8.23475 1 8.55296 1.06308 8.83401C1.1621 9.2691 1.37392 9.66692 1.67506 9.98338C1.9762 10.2998 2.35491 10.5226 2.76923 10.627C3.03692 10.6916 3.33846 10.6916 3.69231 10.6916H7.53846C7.89077 10.6916 8.19385 10.6916 8.46154 10.6253C8.87594 10.5214 9.25485 10.299 9.55626 9.9828C9.85767 9.66663 10.0698 9.26901 10.1692 8.83401C10.2308 8.55296 10.2308 8.23637 10.2308 7.86486V3.82671C10.2308 3.45681 10.2308 3.1386 10.1677 2.85755C10.0687 2.42246 9.85685 2.02464 9.55571 1.70818C9.25457 1.39172 8.87585 1.16897 8.46154 1.06461C8.19385 1 7.89231 1 7.53846 1H3.76923ZM3.12769 2.63787C3.19385 2.62172 3.29692 2.61526 3.76923 2.61526H7.46154C7.93538 2.61526 8.03692 2.62011 8.10308 2.63787C8.24128 2.67257 8.36762 2.74678 8.4681 2.85228C8.56858 2.95777 8.63926 3.09042 8.67231 3.23552C8.68769 3.30336 8.69231 3.40997 8.69231 3.90747V7.78409C8.69231 8.28159 8.68769 8.3882 8.67077 8.45766C8.63772 8.60276 8.56704 8.73541 8.46656 8.8409C8.36608 8.94639 8.23974 9.02061 8.10154 9.0553C8.03846 9.06984 7.93692 9.0763 7.46154 9.0763H3.76923C3.29538 9.0763 3.19385 9.07146 3.12769 9.05369C2.98949 9.01899 2.86315 8.94478 2.76267 8.83929C2.66219 8.73379 2.59151 8.60114 2.55846 8.45604C2.54462 8.38982 2.53846 8.28321 2.53846 7.78409V3.90747C2.53846 3.40997 2.54308 3.30336 2.56 3.2339C2.59305 3.08881 2.66373 2.95615 2.76421 2.85066C2.86469 2.74517 2.99103 2.67096 3.12923 2.63626L3.12769 2.63787ZM14.5385 1H14.4615C14.1092 1 13.8062 1 13.5385 1.06623C13.1241 1.17019 12.7452 1.39258 12.4437 1.70876C12.1423 2.02493 11.9302 2.42255 11.8308 2.85755C11.7692 3.1386 11.7692 3.4552 11.7692 3.82671V7.86486C11.7692 8.23475 11.7692 8.55296 11.8323 8.83401C11.9313 9.2691 12.1431 9.66692 12.4443 9.98338C12.7454 10.2998 13.1241 10.5226 13.5385 10.627C13.8062 10.6916 14.1077 10.6916 14.4615 10.6916H18.3077C18.66 10.6916 18.9631 10.6916 19.2308 10.6253C19.6452 10.5214 20.0241 10.299 20.3255 9.9828C20.6269 9.66663 20.8391 9.26901 20.9385 8.83401C21 8.55296 21 8.23637 21 7.86486V3.82671C21 3.45681 21 3.1386 20.9369 2.85755C20.8379 2.42246 20.6261 2.02464 20.3249 1.70818C20.0238 1.39172 19.6451 1.16897 19.2308 1.06461C18.9631 1 18.6615 1 18.3077 1H14.5385ZM13.8969 2.63787C13.9631 2.62172 14.0662 2.61526 14.5385 2.61526H18.2308C18.7046 2.61526 18.8062 2.62011 18.8723 2.63787C19.0105 2.67257 19.1369 2.74678 19.2373 2.85228C19.3378 2.95777 19.4085 3.09042 19.4415 3.23552C19.4569 3.30336 19.4615 3.40997 19.4615 3.90747V7.78409C19.4615 8.28159 19.4554 8.3882 19.44 8.45766C19.407 8.60276 19.3363 8.73541 19.2358 8.8409C19.1353 8.94639 19.009 9.02061 18.8708 9.0553C18.8062 9.07146 18.7046 9.0763 18.2308 9.0763H14.5385C14.0646 9.0763 13.9631 9.07146 13.8969 9.05369C13.7587 9.01899 13.6324 8.94478 13.5319 8.83929C13.4314 8.73379 13.3607 8.60114 13.3277 8.45604C13.3138 8.38982 13.3077 8.28321 13.3077 7.78409V3.90747C13.3077 3.40997 13.3123 3.30336 13.3292 3.2339C13.3623 3.08881 13.433 2.95615 13.5334 2.85066C13.6339 2.74517 13.7603 2.67096 13.8985 2.63626L13.8969 2.63787ZM3.69231 12.3068H7.53846C7.89077 12.3068 8.19385 12.3068 8.46154 12.373C8.87594 12.477 9.25485 12.6994 9.55626 13.0156C9.85767 13.3318 10.0698 13.7294 10.1692 14.1644C10.2308 14.4454 10.2308 14.762 10.2308 15.1335V19.1717C10.2308 19.5416 10.2308 19.8598 10.1677 20.1408C10.0687 20.5759 9.85685 20.9737 9.55571 21.2902C9.25457 21.6067 8.87585 21.8294 8.46154 21.9338C8.19385 21.9984 7.89231 21.9984 7.53846 21.9984H3.69231C3.34 21.9984 3.03692 21.9984 2.76923 21.9322C2.35482 21.8282 1.97592 21.6058 1.67451 21.2896C1.37309 20.9734 1.16093 20.5758 1.06154 20.1408C1 19.8598 1 19.5432 1 19.1717V15.1335C1 14.7636 1 14.4454 1.06308 14.1644C1.1621 13.7293 1.37392 13.3315 1.67506 13.015C1.9762 12.6985 2.35491 12.4758 2.76923 12.3714C3.03692 12.3068 3.33846 12.3068 3.69231 12.3068ZM3.76923 13.9221C3.29538 13.9221 3.19385 13.9269 3.12769 13.9447C2.98949 13.9794 2.86315 14.0536 2.76267 14.1591C2.66219 14.2646 2.59151 14.3972 2.55846 14.5423C2.54462 14.6086 2.53846 14.7152 2.53846 15.2143V19.0909C2.53846 19.5884 2.54308 19.695 2.56 19.7645C2.59305 19.9096 2.66373 20.0422 2.76421 20.1477C2.86469 20.2532 2.99103 20.3274 3.12923 20.3621C3.19385 20.3783 3.29538 20.3831 3.76923 20.3831H7.46154C7.93538 20.3831 8.03692 20.3767 8.10308 20.3605C8.24128 20.3258 8.36762 20.2516 8.4681 20.1461C8.56858 20.0406 8.63926 19.908 8.67231 19.7629C8.68769 19.695 8.69231 19.5884 8.69231 19.0909V15.2143C8.69231 14.7168 8.68769 14.6102 8.67077 14.5407C8.63772 14.3956 8.56704 14.263 8.46656 14.1575C8.36608 14.052 8.23974 13.9778 8.10154 13.9431C8.03846 13.9285 7.93692 13.9221 7.46154 13.9221H3.76923ZM14.5385 12.3068H14.4615C14.1092 12.3068 13.8062 12.3068 13.5385 12.373C13.1241 12.477 12.7452 12.6994 12.4437 13.0156C12.1423 13.3318 11.9302 13.7294 11.8308 14.1644C11.7692 14.4454 11.7692 14.762 11.7692 15.1335V19.1717C11.7692 19.5416 11.7692 19.8598 11.8323 20.1408C11.9313 20.5759 12.1431 20.9737 12.4443 21.2902C12.7454 21.6067 13.1241 21.8294 13.5385 21.9338C13.8062 22 14.1092 22 14.4615 22H18.3077C18.66 22 18.9631 22 19.2308 21.9338C19.6449 21.8295 20.0235 21.607 20.3246 21.2909C20.6257 20.9747 20.8377 20.5772 20.9369 20.1425C21 19.8614 21 19.5432 21 19.1733V15.1335C21 14.7636 21 14.4454 20.9369 14.1644C20.8379 13.7293 20.6261 13.3315 20.3249 13.015C20.0238 12.6985 19.6451 12.4758 19.2308 12.3714C18.9631 12.3068 18.6615 12.3068 18.3077 12.3068H14.5385ZM13.8969 13.9447C13.9631 13.9285 14.0662 13.9221 14.5385 13.9221H18.2308C18.7046 13.9221 18.8062 13.9269 18.8723 13.9447C19.0105 13.9794 19.1369 14.0536 19.2373 14.1591C19.3378 14.2646 19.4085 14.3972 19.4415 14.5423C19.4569 14.6102 19.4615 14.7168 19.4615 15.2143V19.0909C19.4615 19.5884 19.4554 19.695 19.44 19.7645C19.407 19.9096 19.3363 20.0422 19.2358 20.1477C19.1353 20.2532 19.009 20.3274 18.8708 20.3621C18.8062 20.3783 18.7046 20.3831 18.2308 20.3831H14.5385C14.0646 20.3831 13.9631 20.3767 13.8969 20.3605C13.7587 20.3258 13.6324 20.2516 13.5319 20.1461C13.4314 20.0406 13.3607 19.908 13.3277 19.7629C13.3138 19.6966 13.3077 19.59 13.3077 19.0909V15.2143C13.3077 14.7168 13.3123 14.6102 13.3292 14.5407C13.3623 14.3956 13.433 14.263 13.5334 14.1575C13.6339 14.052 13.7603 13.9778 13.8985 13.9431L13.8969 13.9447Z"/>
</mask>
<path fill-rule="evenodd" clip-rule="evenodd" d="M3.76923 1H3.69231C3.34 1 3.03692 1 2.76923 1.06623C2.35482 1.17019 1.97592 1.39258 1.67451 1.70876C1.37309 2.02493 1.16093 2.42255 1.06154 2.85755C1 3.1386 1 3.4552 1 3.82671V7.86486C1 8.23475 1 8.55296 1.06308 8.83401C1.1621 9.2691 1.37392 9.66692 1.67506 9.98338C1.9762 10.2998 2.35491 10.5226 2.76923 10.627C3.03692 10.6916 3.33846 10.6916 3.69231 10.6916H7.53846C7.89077 10.6916 8.19385 10.6916 8.46154 10.6253C8.87594 10.5214 9.25485 10.299 9.55626 9.9828C9.85767 9.66663 10.0698 9.26901 10.1692 8.83401C10.2308 8.55296 10.2308 8.23637 10.2308 7.86486V3.82671C10.2308 3.45681 10.2308 3.1386 10.1677 2.85755C10.0687 2.42246 9.85685 2.02464 9.55571 1.70818C9.25457 1.39172 8.87585 1.16897 8.46154 1.06461C8.19385 1 7.89231 1 7.53846 1H3.76923ZM3.12769 2.63787C3.19385 2.62172 3.29692 2.61526 3.76923 2.61526H7.46154C7.93538 2.61526 8.03692 2.62011 8.10308 2.63787C8.24128 2.67257 8.36762 2.74678 8.4681 2.85228C8.56858 2.95777 8.63926 3.09042 8.67231 3.23552C8.68769 3.30336 8.69231 3.40997 8.69231 3.90747V7.78409C8.69231 8.28159 8.68769 8.3882 8.67077 8.45766C8.63772 8.60276 8.56704 8.73541 8.46656 8.8409C8.36608 8.94639 8.23974 9.02061 8.10154 9.0553C8.03846 9.06984 7.93692 9.0763 7.46154 9.0763H3.76923C3.29538 9.0763 3.19385 9.07146 3.12769 9.05369C2.98949 9.01899 2.86315 8.94478 2.76267 8.83929C2.66219 8.73379 2.59151 8.60114 2.55846 8.45604C2.54462 8.38982 2.53846 8.28321 2.53846 7.78409V3.90747C2.53846 3.40997 2.54308 3.30336 2.56 3.2339C2.59305 3.08881 2.66373 2.95615 2.76421 2.85066C2.86469 2.74517 2.99103 2.67096 3.12923 2.63626L3.12769 2.63787ZM14.5385 1H14.4615C14.1092 1 13.8062 1 13.5385 1.06623C13.1241 1.17019 12.7452 1.39258 12.4437 1.70876C12.1423 2.02493 11.9302 2.42255 11.8308 2.85755C11.7692 3.1386 11.7692 3.4552 11.7692 3.82671V7.86486C11.7692 8.23475 11.7692 8.55296 11.8323 8.83401C11.9313 9.2691 12.1431 9.66692 12.4443 9.98338C12.7454 10.2998 13.1241 10.5226 13.5385 10.627C13.8062 10.6916 14.1077 10.6916 14.4615 10.6916H18.3077C18.66 10.6916 18.9631 10.6916 19.2308 10.6253C19.6452 10.5214 20.0241 10.299 20.3255 9.9828C20.6269 9.66663 20.8391 9.26901 20.9385 8.83401C21 8.55296 21 8.23637 21 7.86486V3.82671C21 3.45681 21 3.1386 20.9369 2.85755C20.8379 2.42246 20.6261 2.02464 20.3249 1.70818C20.0238 1.39172 19.6451 1.16897 19.2308 1.06461C18.9631 1 18.6615 1 18.3077 1H14.5385ZM13.8969 2.63787C13.9631 2.62172 14.0662 2.61526 14.5385 2.61526H18.2308C18.7046 2.61526 18.8062 2.62011 18.8723 2.63787C19.0105 2.67257 19.1369 2.74678 19.2373 2.85228C19.3378 2.95777 19.4085 3.09042 19.4415 3.23552C19.4569 3.30336 19.4615 3.40997 19.4615 3.90747V7.78409C19.4615 8.28159 19.4554 8.3882 19.44 8.45766C19.407 8.60276 19.3363 8.73541 19.2358 8.8409C19.1353 8.94639 19.009 9.02061 18.8708 9.0553C18.8062 9.07146 18.7046 9.0763 18.2308 9.0763H14.5385C14.0646 9.0763 13.9631 9.07146 13.8969 9.05369C13.7587 9.01899 13.6324 8.94478 13.5319 8.83929C13.4314 8.73379 13.3607 8.60114 13.3277 8.45604C13.3138 8.38982 13.3077 8.28321 13.3077 7.78409V3.90747C13.3077 3.40997 13.3123 3.30336 13.3292 3.2339C13.3623 3.08881 13.433 2.95615 13.5334 2.85066C13.6339 2.74517 13.7603 2.67096 13.8985 2.63626L13.8969 2.63787ZM3.69231 12.3068H7.53846C7.89077 12.3068 8.19385 12.3068 8.46154 12.373C8.87594 12.477 9.25485 12.6994 9.55626 13.0156C9.85767 13.3318 10.0698 13.7294 10.1692 14.1644C10.2308 14.4454 10.2308 14.762 10.2308 15.1335V19.1717C10.2308 19.5416 10.2308 19.8598 10.1677 20.1408C10.0687 20.5759 9.85685 20.9737 9.55571 21.2902C9.25457 21.6067 8.87585 21.8294 8.46154 21.9338C8.19385 21.9984 7.89231 21.9984 7.53846 21.9984H3.69231C3.34 21.9984 3.03692 21.9984 2.76923 21.9322C2.35482 21.8282 1.97592 21.6058 1.67451 21.2896C1.37309 20.9734 1.16093 20.5758 1.06154 20.1408C1 19.8598 1 19.5432 1 19.1717V15.1335C1 14.7636 1 14.4454 1.06308 14.1644C1.1621 13.7293 1.37392 13.3315 1.67506 13.015C1.9762 12.6985 2.35491 12.4758 2.76923 12.3714C3.03692 12.3068 3.33846 12.3068 3.69231 12.3068ZM3.76923 13.9221C3.29538 13.9221 3.19385 13.9269 3.12769 13.9447C2.98949 13.9794 2.86315 14.0536 2.76267 14.1591C2.66219 14.2646 2.59151 14.3972 2.55846 14.5423C2.54462 14.6086 2.53846 14.7152 2.53846 15.2143V19.0909C2.53846 19.5884 2.54308 19.695 2.56 19.7645C2.59305 19.9096 2.66373 20.0422 2.76421 20.1477C2.86469 20.2532 2.99103 20.3274 3.12923 20.3621C3.19385 20.3783 3.29538 20.3831 3.76923 20.3831H7.46154C7.93538 20.3831 8.03692 20.3767 8.10308 20.3605C8.24128 20.3258 8.36762 20.2516 8.4681 20.1461C8.56858 20.0406 8.63926 19.908 8.67231 19.7629C8.68769 19.695 8.69231 19.5884 8.69231 19.0909V15.2143C8.69231 14.7168 8.68769 14.6102 8.67077 14.5407C8.63772 14.3956 8.56704 14.263 8.46656 14.1575C8.36608 14.052 8.23974 13.9778 8.10154 13.9431C8.03846 13.9285 7.93692 13.9221 7.46154 13.9221H3.76923ZM14.5385 12.3068H14.4615C14.1092 12.3068 13.8062 12.3068 13.5385 12.373C13.1241 12.477 12.7452 12.6994 12.4437 13.0156C12.1423 13.3318 11.9302 13.7294 11.8308 14.1644C11.7692 14.4454 11.7692 14.762 11.7692 15.1335V19.1717C11.7692 19.5416 11.7692 19.8598 11.8323 20.1408C11.9313 20.5759 12.1431 20.9737 12.4443 21.2902C12.7454 21.6067 13.1241 21.8294 13.5385 21.9338C13.8062 22 14.1092 22 14.4615 22H18.3077C18.66 22 18.9631 22 19.2308 21.9338C19.6449 21.8295 20.0235 21.607 20.3246 21.2909C20.6257 20.9747 20.8377 20.5772 20.9369 20.1425C21 19.8614 21 19.5432 21 19.1733V15.1335C21 14.7636 21 14.4454 20.9369 14.1644C20.8379 13.7293 20.6261 13.3315 20.3249 13.015C20.0238 12.6985 19.6451 12.4758 19.2308 12.3714C18.9631 12.3068 18.6615 12.3068 18.3077 12.3068H14.5385ZM13.8969 13.9447C13.9631 13.9285 14.0662 13.9221 14.5385 13.9221H18.2308C18.7046 13.9221 18.8062 13.9269 18.8723 13.9447C19.0105 13.9794 19.1369 14.0536 19.2373 14.1591C19.3378 14.2646 19.4085 14.3972 19.4415 14.5423C19.4569 14.6102 19.4615 14.7168 19.4615 15.2143V19.0909C19.4615 19.5884 19.4554 19.695 19.44 19.7645C19.407 19.9096 19.3363 20.0422 19.2358 20.1477C19.1353 20.2532 19.009 20.3274 18.8708 20.3621C18.8062 20.3783 18.7046 20.3831 18.2308 20.3831H14.5385C14.0646 20.3831 13.9631 20.3767 13.8969 20.3605C13.7587 20.3258 13.6324 20.2516 13.5319 20.1461C13.4314 20.0406 13.3607 19.908 13.3277 19.7629C13.3138 19.6966 13.3077 19.59 13.3077 19.0909V15.2143C13.3077 14.7168 13.3123 14.6102 13.3292 14.5407C13.3623 14.3956 13.433 14.263 13.5334 14.1575C13.6339 14.052 13.7603 13.9778 13.8985 13.9431L13.8969 13.9447Z" fill="#797D90"/>
<path fill-rule="evenodd" clip-rule="evenodd" d="M3.76923 1H3.69231C3.34 1 3.03692 1 2.76923 1.06623C2.35482 1.17019 1.97592 1.39258 1.67451 1.70876C1.37309 2.02493 1.16093 2.42255 1.06154 2.85755C1 3.1386 1 3.4552 1 3.82671V7.86486C1 8.23475 1 8.55296 1.06308 8.83401C1.1621 9.2691 1.37392 9.66692 1.67506 9.98338C1.9762 10.2998 2.35491 10.5226 2.76923 10.627C3.03692 10.6916 3.33846 10.6916 3.69231 10.6916H7.53846C7.89077 10.6916 8.19385 10.6916 8.46154 10.6253C8.87594 10.5214 9.25485 10.299 9.55626 9.9828C9.85767 9.66663 10.0698 9.26901 10.1692 8.83401C10.2308 8.55296 10.2308 8.23637 10.2308 7.86486V3.82671C10.2308 3.45681 10.2308 3.1386 10.1677 2.85755C10.0687 2.42246 9.85685 2.02464 9.55571 1.70818C9.25457 1.39172 8.87585 1.16897 8.46154 1.06461C8.19385 1 7.89231 1 7.53846 1H3.76923ZM3.12769 2.63787C3.19385 2.62172 3.29692 2.61526 3.76923 2.61526H7.46154C7.93538 2.61526 8.03692 2.62011 8.10308 2.63787C8.24128 2.67257 8.36762 2.74678 8.4681 2.85228C8.56858 2.95777 8.63926 3.09042 8.67231 3.23552C8.68769 3.30336 8.69231 3.40997 8.69231 3.90747V7.78409C8.69231 8.28159 8.68769 8.3882 8.67077 8.45766C8.63772 8.60276 8.56704 8.73541 8.46656 8.8409C8.36608 8.94639 8.23974 9.02061 8.10154 9.0553C8.03846 9.06984 7.93692 9.0763 7.46154 9.0763H3.76923C3.29538 9.0763 3.19385 9.07146 3.12769 9.05369C2.98949 9.01899 2.86315 8.94478 2.76267 8.83929C2.66219 8.73379 2.59151 8.60114 2.55846 8.45604C2.54462 8.38982 2.53846 8.28321 2.53846 7.78409V3.90747C2.53846 3.40997 2.54308 3.30336 2.56 3.2339C2.59305 3.08881 2.66373 2.95615 2.76421 2.85066C2.86469 2.74517 2.99103 2.67096 3.12923 2.63626L3.12769 2.63787ZM14.5385 1H14.4615C14.1092 1 13.8062 1 13.5385 1.06623C13.1241 1.17019 12.7452 1.39258 12.4437 1.70876C12.1423 2.02493 11.9302 2.42255 11.8308 2.85755C11.7692 3.1386 11.7692 3.4552 11.7692 3.82671V7.86486C11.7692 8.23475 11.7692 8.55296 11.8323 8.83401C11.9313 9.2691 12.1431 9.66692 12.4443 9.98338C12.7454 10.2998 13.1241 10.5226 13.5385 10.627C13.8062 10.6916 14.1077 10.6916 14.4615 10.6916H18.3077C18.66 10.6916 18.9631 10.6916 19.2308 10.6253C19.6452 10.5214 20.0241 10.299 20.3255 9.9828C20.6269 9.66663 20.8391 9.26901 20.9385 8.83401C21 8.55296 21 8.23637 21 7.86486V3.82671C21 3.45681 21 3.1386 20.9369 2.85755C20.8379 2.42246 20.6261 2.02464 20.3249 1.70818C20.0238 1.39172 19.6451 1.16897 19.2308 1.06461C18.9631 1 18.6615 1 18.3077 1H14.5385ZM13.8969 2.63787C13.9631 2.62172 14.0662 2.61526 14.5385 2.61526H18.2308C18.7046 2.61526 18.8062 2.62011 18.8723 2.63787C19.0105 2.67257 19.1369 2.74678 19.2373 2.85228C19.3378 2.95777 19.4085 3.09042 19.4415 3.23552C19.4569 3.30336 19.4615 3.40997 19.4615 3.90747V7.78409C19.4615 8.28159 19.4554 8.3882 19.44 8.45766C19.407 8.60276 19.3363 8.73541 19.2358 8.8409C19.1353 8.94639 19.009 9.02061 18.8708 9.0553C18.8062 9.07146 18.7046 9.0763 18.2308 9.0763H14.5385C14.0646 9.0763 13.9631 9.07146 13.8969 9.05369C13.7587 9.01899 13.6324 8.94478 13.5319 8.83929C13.4314 8.73379 13.3607 8.60114 13.3277 8.45604C13.3138 8.38982 13.3077 8.28321 13.3077 7.78409V3.90747C13.3077 3.40997 13.3123 3.30336 13.3292 3.2339C13.3623 3.08881 13.433 2.95615 13.5334 2.85066C13.6339 2.74517 13.7603 2.67096 13.8985 2.63626L13.8969 2.63787ZM3.69231 12.3068H7.53846C7.89077 12.3068 8.19385 12.3068 8.46154 12.373C8.87594 12.477 9.25485 12.6994 9.55626 13.0156C9.85767 13.3318 10.0698 13.7294 10.1692 14.1644C10.2308 14.4454 10.2308 14.762 10.2308 15.1335V19.1717C10.2308 19.5416 10.2308 19.8598 10.1677 20.1408C10.0687 20.5759 9.85685 20.9737 9.55571 21.2902C9.25457 21.6067 8.87585 21.8294 8.46154 21.9338C8.19385 21.9984 7.89231 21.9984 7.53846 21.9984H3.69231C3.34 21.9984 3.03692 21.9984 2.76923 21.9322C2.35482 21.8282 1.97592 21.6058 1.67451 21.2896C1.37309 20.9734 1.16093 20.5758 1.06154 20.1408C1 19.8598 1 19.5432 1 19.1717V15.1335C1 14.7636 1 14.4454 1.06308 14.1644C1.1621 13.7293 1.37392 13.3315 1.67506 13.015C1.9762 12.6985 2.35491 12.4758 2.76923 12.3714C3.03692 12.3068 3.33846 12.3068 3.69231 12.3068ZM3.76923 13.9221C3.29538 13.9221 3.19385 13.9269 3.12769 13.9447C2.98949 13.9794 2.86315 14.0536 2.76267 14.1591C2.66219 14.2646 2.59151 14.3972 2.55846 14.5423C2.54462 14.6086 2.53846 14.7152 2.53846 15.2143V19.0909C2.53846 19.5884 2.54308 19.695 2.56 19.7645C2.59305 19.9096 2.66373 20.0422 2.76421 20.1477C2.86469 20.2532 2.99103 20.3274 3.12923 20.3621C3.19385 20.3783 3.29538 20.3831 3.76923 20.3831H7.46154C7.93538 20.3831 8.03692 20.3767 8.10308 20.3605C8.24128 20.3258 8.36762 20.2516 8.4681 20.1461C8.56858 20.0406 8.63926 19.908 8.67231 19.7629C8.68769 19.695 8.69231 19.5884 8.69231 19.0909V15.2143C8.69231 14.7168 8.68769 14.6102 8.67077 14.5407C8.63772 14.3956 8.56704 14.263 8.46656 14.1575C8.36608 14.052 8.23974 13.9778 8.10154 13.9431C8.03846 13.9285 7.93692 13.9221 7.46154 13.9221H3.76923ZM14.5385 12.3068H14.4615C14.1092 12.3068 13.8062 12.3068 13.5385 12.373C13.1241 12.477 12.7452 12.6994 12.4437 13.0156C12.1423 13.3318 11.9302 13.7294 11.8308 14.1644C11.7692 14.4454 11.7692 14.762 11.7692 15.1335V19.1717C11.7692 19.5416 11.7692 19.8598 11.8323 20.1408C11.9313 20.5759 12.1431 20.9737 12.4443 21.2902C12.7454 21.6067 13.1241 21.8294 13.5385 21.9338C13.8062 22 14.1092 22 14.4615 22H18.3077C18.66 22 18.9631 22 19.2308 21.9338C19.6449 21.8295 20.0235 21.607 20.3246 21.2909C20.6257 20.9747 20.8377 20.5772 20.9369 20.1425C21 19.8614 21 19.5432 21 19.1733V15.1335C21 14.7636 21 14.4454 20.9369 14.1644C20.8379 13.7293 20.6261 13.3315 20.3249 13.015C20.0238 12.6985 19.6451 12.4758 19.2308 12.3714C18.9631 12.3068 18.6615 12.3068 18.3077 12.3068H14.5385ZM13.8969 13.9447C13.9631 13.9285 14.0662 13.9221 14.5385 13.9221H18.2308C18.7046 13.9221 18.8062 13.9269 18.8723 13.9447C19.0105 13.9794 19.1369 14.0536 19.2373 14.1591C19.3378 14.2646 19.4085 14.3972 19.4415 14.5423C19.4569 14.6102 19.4615 14.7168 19.4615 15.2143V19.0909C19.4615 19.5884 19.4554 19.695 19.44 19.7645C19.407 19.9096 19.3363 20.0422 19.2358 20.1477C19.1353 20.2532 19.009 20.3274 18.8708 20.3621C18.8062 20.3783 18.7046 20.3831 18.2308 20.3831H14.5385C14.0646 20.3831 13.9631 20.3767 13.8969 20.3605C13.7587 20.3258 13.6324 20.2516 13.5319 20.1461C13.4314 20.0406 13.3607 19.908 13.3277 19.7629C13.3138 19.6966 13.3077 19.59 13.3077 19.0909V15.2143C13.3077 14.7168 13.3123 14.6102 13.3292 14.5407C13.3623 14.3956 13.433 14.263 13.5334 14.1575C13.6339 14.052 13.7603 13.9778 13.8985 13.9431L13.8969 13.9447Z" stroke="#797D90" stroke-width="0.4" mask="url(#path-1-outside-1_191_122)"/>
</svg>
