<svg width="19" height="19" viewBox="0 0 19 19" fill="none" xmlns="http://www.w3.org/2000/svg">
<path d="M5.34375 11.2812H10.0938V12.4688H5.34375V11.2812ZM5.34375 8.3125H12.4688V9.5H5.34375V8.3125ZM5.34375 14.25H8.3125V15.4375H5.34375V14.25Z" fill="#A8AEC7"/>
<path d="M14.654 3.13021H12.7317V2.49542C12.7317 2.1587 12.5967 1.83578 12.3563 1.59768C12.116 1.35959 11.79 1.22583 11.4502 1.22583H6.32405C5.98417 1.22583 5.65821 1.35959 5.41788 1.59768C5.17754 1.83578 5.04253 2.1587 5.04253 2.49542V3.13021H3.12024C2.78036 3.13021 2.4544 3.26397 2.21406 3.50206C1.97373 3.74015 1.83871 4.06308 1.83871 4.39979V17.7304C1.83871 18.0672 1.97373 18.3901 2.21406 18.6282C2.4544 18.8663 2.78036 19 3.12024 19H14.654C14.9938 19 15.3198 18.8663 15.5601 18.6282C15.8005 18.3901 15.9355 18.0672 15.9355 17.7304V4.39979C15.9355 4.06308 15.8005 3.74015 15.5601 3.50206C15.3198 3.26397 14.9938 3.13021 14.654 3.13021ZM6.32405 2.49542H11.4502V5.03459H6.32405V2.49542ZM14.654 17.7304H3.12024V4.39979H5.04253V6.30417H12.7317V4.39979H14.654V17.7304Z" fill="#A8AEC7"/>
</svg>
