<svg width="16" height="17" viewBox="0 0 16 17" fill="none" xmlns="http://www.w3.org/2000/svg">
<path d="M10.3333 13.125L11.5 14.2917V15.75" stroke="white" stroke-width="1.2" stroke-linecap="round" stroke-linejoin="round"/>
<path d="M5.66669 13.125L4.50002 14.2917V15.75" stroke="white" stroke-width="1.2" stroke-linecap="round" stroke-linejoin="round"/>
<path d="M12.0833 9.91667H13.8333L15 11.0833" stroke="white" stroke-width="1.2" stroke-linecap="round" stroke-linejoin="round"/>
<path d="M12.0833 5.83333H13.8333L15 4.66666" stroke="white" stroke-width="1.2" stroke-linecap="round" stroke-linejoin="round"/>
<path d="M3.91669 5.83333H2.16669L1.00002 4.66666" stroke="white" stroke-width="1.2" stroke-linecap="round" stroke-linejoin="round"/>
<path d="M3.91669 9.91667H2.16669L1.00002 11.0833" stroke="white" stroke-width="1.2" stroke-linecap="round" stroke-linejoin="round"/>
<path d="M6.25004 2.75L5.08337 1" stroke="white" stroke-width="1.2" stroke-linecap="round" stroke-linejoin="round"/>
<path d="M9.74996 2.75L10.9166 1" stroke="white" stroke-width="1.2" stroke-linecap="round" stroke-linejoin="round"/>
<mask id="path-9-inside-1_104_342" fill="white">
<path fill-rule="evenodd" clip-rule="evenodd" d="M8.58345 2.95803C8.39288 2.93077 8.19807 2.91666 7.99996 2.91666C7.74381 2.91666 7.49317 2.94025 7.25009 2.98536L7.2501 13.9313C7.49317 13.9764 7.74381 14 7.99996 14C8.19807 14 8.39288 13.9859 8.58345 13.9586L8.58345 2.95803ZM9.58345 13.6816C11.0522 13.0631 12.0833 11.6103 12.0833 9.91666V6.99999C12.0833 5.30634 11.0522 3.85352 9.58345 3.23505L9.58345 13.6816ZM3.91663 6.99999C3.91663 5.37104 4.87047 3.96487 6.25009 3.30955L6.2501 13.6071C4.87047 12.9518 3.91663 11.5456 3.91663 9.91666V6.99999Z"/>
</mask>
<path d="M8.58345 2.95803L10.0834 2.95803V1.65738L8.7959 1.47316L8.58345 2.95803ZM7.25009 2.98536L6.97636 1.51055L5.75009 1.73816V2.98536L7.25009 2.98536ZM7.2501 13.9313H5.7501V15.1785L6.97636 15.4061L7.2501 13.9313ZM8.58345 13.9586L8.79591 15.4435L10.0834 15.2593V13.9586H8.58345ZM9.58345 13.6816H8.08345V15.9408L10.1656 15.064L9.58345 13.6816ZM9.58345 3.23505L10.1656 1.85262L8.08345 0.975836V3.23505L9.58345 3.23505ZM6.25009 3.30955L7.75009 3.30955V0.936422L5.60651 1.95463L6.25009 3.30955ZM6.2501 13.6071L5.60651 14.962L7.7501 15.9802V13.6071H6.2501ZM8.7959 1.47316C8.53518 1.43585 8.26937 1.41666 7.99996 1.41666V4.41666C8.12676 4.41666 8.25058 4.42568 8.37099 4.44291L8.7959 1.47316ZM7.99996 1.41666C7.65154 1.41666 7.30928 1.44876 6.97636 1.51055L7.52383 4.46017C7.67706 4.43173 7.83608 4.41666 7.99996 4.41666V1.41666ZM5.75009 2.98536L5.7501 13.9313H8.75009L8.75009 2.98536L5.75009 2.98536ZM6.97636 15.4061C7.30928 15.4679 7.65154 15.5 7.99996 15.5V12.5C7.83608 12.5 7.67706 12.4849 7.52383 12.4565L6.97636 15.4061ZM7.99996 15.5C8.26937 15.5 8.53518 15.4808 8.79591 15.4435L8.37099 12.4737C8.25058 12.491 8.12676 12.5 7.99996 12.5V15.5ZM10.0834 13.9586L10.0834 2.95803L7.08345 2.95803L7.08345 13.9586H10.0834ZM10.1656 15.064C12.1709 14.2196 13.5833 12.2348 13.5833 9.91666H10.5833C10.5833 10.9858 9.93347 11.9066 9.00131 12.2992L10.1656 15.064ZM13.5833 9.91666V6.99999H10.5833V9.91666H13.5833ZM13.5833 6.99999C13.5833 4.68183 12.1709 2.69704 10.1656 1.85262L9.00131 4.61748C9.93347 5.01001 10.5833 5.93085 10.5833 6.99999H13.5833ZM8.08345 3.23505L8.08345 13.6816H11.0834L11.0834 3.23505L8.08345 3.23505ZM5.60651 1.95463C3.72356 2.84904 2.41663 4.7704 2.41663 6.99999H5.41663C5.41663 5.97169 6.01737 5.08071 6.89368 4.66446L5.60651 1.95463ZM7.7501 13.6071L7.75009 3.30955L4.75009 3.30955L4.7501 13.6071H7.7501ZM2.41663 9.91666C2.41663 12.1463 3.72356 14.0676 5.60651 14.962L6.89368 12.2522C6.01737 11.8359 5.41663 10.945 5.41663 9.91666H2.41663ZM2.41663 6.99999V9.91666H5.41663V6.99999H2.41663Z" fill="white" mask="url(#path-9-inside-1_104_342)"/>
</svg>
