<svg width="24" height="24" viewBox="0 0 24 24" fill="none" xmlns="http://www.w3.org/2000/svg">
<path d="M11.5 11.207V22.9136L10.7188 23.3042L0.5625 18.2383V5.54297L10.7188 0.464844L20.875 5.54297V14.625H19.3125V7.30078L11.5 11.207ZM10.7188 2.22266L7.77686 3.6875L15.3574 7.52051L18.3481 6.03125L10.7188 2.22266ZM9.9375 21.168V11.207L2.125 7.30078V17.2617L9.9375 21.168ZM3.08936 6.03125L10.7188 9.83984L13.624 8.39941L6.03125 4.56641L3.08936 6.03125ZM16.1875 20.875V19.3125H24V20.875H16.1875ZM16.1875 16.1875H24V17.75H16.1875V16.1875ZM13.0625 24V22.4375H14.625V24H13.0625ZM13.0625 17.75V16.1875H14.625V17.75H13.0625ZM13.0625 20.875V19.3125H14.625V20.875H13.0625ZM16.1875 24V22.4375H24V24H16.1875Z" fill="#3A56EC"/>
</svg>
