<svg width="16" height="16" viewBox="0 0 16 16" fill="none" xmlns="http://www.w3.org/2000/svg">
<path d="M13.8333 2.16667V13.8333H2.16667V2.16667H13.8333ZM13.8333 0.5H2.16667C1.25 0.5 0.5 1.25 0.5 2.16667V13.8333C0.5 14.75 1.25 15.5 2.16667 15.5H13.8333C14.75 15.5 15.5 14.75 15.5 13.8333V2.16667C15.5 1.25 14.75 0.5 13.8333 0.5ZM5.5 3.83333H3.83333V12.1667H5.5V3.83333ZM10.5 3.83333H7.16667V12.1667H8.83333V8.83333H10.5C11.4167 8.83333 12.1667 8.08333 12.1667 7.16667V5.5C12.1667 4.58333 11.4167 3.83333 10.5 3.83333ZM10.5 7.16667H8.83333V5.5H10.5V7.16667Z" fill="#A8AEC7"/>
</svg>
