<svg width="18" height="18" viewBox="0 0 18 18" fill="none" xmlns="http://www.w3.org/2000/svg">
<g clip-path="url(#clip0_115_3251)">
<path d="M16.5938 0.5625H5.90625C5.68247 0.5625 5.46786 0.651395 5.30963 0.809629C5.15139 0.967862 5.0625 1.18247 5.0625 1.40625V12.0938C5.0625 12.3175 5.15139 12.5321 5.30963 12.6904C5.46786 12.8486 5.68247 12.9375 5.90625 12.9375H16.5938C16.8175 12.9375 17.0321 12.8486 17.1904 12.6904C17.3486 12.5321 17.4375 12.3175 17.4375 12.0938V1.40625C17.4375 1.18247 17.3486 0.967862 17.1904 0.809629C17.0321 0.651395 16.8175 0.5625 16.5938 0.5625ZM16.3125 11.8125H6.1875V1.6875H16.3125V11.8125Z" fill="white"/>
<path d="M3.9375 14.0625V2.8125H2.8125V14.3438C2.8125 14.5675 2.90139 14.7821 3.05963 14.9404C3.21786 15.0986 3.43247 15.1875 3.65625 15.1875H15.1875V14.0625H3.9375Z" fill="white"/>
<path d="M1.6875 16.3125V5.0625H0.5625V16.5938C0.5625 16.8175 0.651395 17.0321 0.809629 17.1904C0.967862 17.3486 1.18247 17.4375 1.40625 17.4375H12.9375V16.3125H1.6875Z" fill="white"/>
</g>
<defs>
<clipPath id="clip0_115_3251">
<rect width="18" height="18" fill="white"/>
</clipPath>
</defs>
</svg>
