<svg width="20" height="20" viewBox="0 0 20 20" fill="none" xmlns="http://www.w3.org/2000/svg">
<path d="M14.1416 14.7953C13.943 14.5566 13.8438 14.2856 13.8438 13.9823C13.8438 13.6798 13.943 13.4275 14.1416 13.2256L16.1452 11.1877H8.37439C8.06753 11.1877 7.81049 11.082 7.60327 10.8705C7.39532 10.6597 7.29135 10.3983 7.29135 10.0862C7.29135 9.77412 7.39532 9.51232 7.60327 9.30082C7.81049 9.09007 8.06753 8.98468 8.37439 8.98468H16.1452L14.1416 6.94685C13.925 6.72654 13.8167 6.46511 13.8167 6.16256C13.8167 5.85927 13.925 5.59747 14.1416 5.37717C14.3402 5.15686 14.5885 5.04671 14.8867 5.04671C15.1842 5.04671 15.4322 5.14768 15.6308 5.34963L19.5297 9.31514C19.638 9.4253 19.7149 9.54463 19.7604 9.67314C19.8052 9.80165 19.8276 9.93935 19.8276 10.0862C19.8276 10.2331 19.8052 10.3708 19.7604 10.4993C19.7149 10.6278 19.638 10.7471 19.5297 10.8573L15.6308 14.8228C15.3961 15.0615 15.1391 15.1669 14.8597 15.1389C14.5795 15.1118 14.3402 14.9972 14.1416 14.7953ZM2.95918 20C2.3635 20 1.85339 19.7845 1.42884 19.3534C1.00501 18.9216 0.793091 18.4028 0.793091 17.7969V2.37549C0.793091 1.76965 1.00501 1.25082 1.42884 0.819024C1.85339 0.387957 2.3635 0.172424 2.95918 0.172424H9.45744C9.7643 0.172424 10.0217 0.277804 10.2296 0.488564C10.4369 0.700058 10.5405 0.961856 10.5405 1.27396C10.5405 1.58606 10.4369 1.84749 10.2296 2.05825C10.0217 2.26974 9.7643 2.37549 9.45744 2.37549H2.95918V17.7969H9.45744C9.7643 17.7969 10.0217 17.9027 10.2296 18.1142C10.4369 18.3249 10.5405 18.5864 10.5405 18.8985C10.5405 19.2106 10.4369 19.472 10.2296 19.6828C10.0217 19.8943 9.7643 20 9.45744 20H2.95918Z" fill="#797D90"/>
</svg>
