<svg width="10" height="10" viewBox="0 0 10 10" fill="none" xmlns="http://www.w3.org/2000/svg">
<path d="M9.00001 5.66536H5.66668V8.9987C5.66668 9.17551 5.59644 9.34508 5.47141 9.4701C5.34639 9.59513 5.17682 9.66536 5.00001 9.66536C4.8232 9.66536 4.65363 9.59513 4.52861 9.4701C4.40358 9.34508 4.33334 9.17551 4.33334 8.9987V5.66536H1.00001C0.823199 5.66536 0.65363 5.59513 0.528606 5.4701C0.403582 5.34508 0.333344 5.17551 0.333344 4.9987C0.333344 4.82189 0.403582 4.65232 0.528606 4.52729C0.65363 4.40227 0.823199 4.33203 1.00001 4.33203H4.33334V0.998698C4.33334 0.821887 4.40358 0.652317 4.52861 0.527293C4.65363 0.402269 4.8232 0.332031 5.00001 0.332031C5.17682 0.332031 5.34639 0.402269 5.47141 0.527293C5.59644 0.652317 5.66668 0.821887 5.66668 0.998698V4.33203H9.00001C9.17682 4.33203 9.34639 4.40227 9.47141 4.52729C9.59644 4.65232 9.66668 4.82189 9.66668 4.9987C9.66668 5.17551 9.59644 5.34508 9.47141 5.4701C9.34639 5.59513 9.17682 5.66536 9.00001 5.66536Z" fill="white"/>
</svg>
