<svg width="28" height="28" viewBox="0 0 28 28" fill="none" xmlns="http://www.w3.org/2000/svg">
<path d="M7.875 16.625H14.875V18.375H7.875V16.625ZM7.875 12.25H18.375V14H7.875V12.25ZM7.875 21H12.25V22.75H7.875V21Z" fill="#797D90"/>
<path d="M21.5953 4.61291H18.7625V3.67743C18.7625 3.18121 18.5635 2.70533 18.2094 2.35445C17.8552 2.00358 17.3748 1.80646 16.8739 1.80646H9.31969C8.81881 1.80646 8.33845 2.00358 7.98427 2.35445C7.6301 2.70533 7.43112 3.18121 7.43112 3.67743V4.61291H4.59828C4.0974 4.61291 3.61704 4.81003 3.26286 5.1609C2.90869 5.51178 2.70972 5.98767 2.70972 6.48388V26.129C2.70972 26.6252 2.90869 27.1011 3.26286 27.452C3.61704 27.8029 4.0974 28 4.59828 28H21.5953C22.0962 28 22.5766 27.8029 22.9308 27.452C23.2849 27.1011 23.4839 26.6252 23.4839 26.129V6.48388C23.4839 5.98767 23.2849 5.51178 22.9308 5.1609C22.5766 4.81003 22.0962 4.61291 21.5953 4.61291ZM9.31969 3.67743H16.8739V7.41936H9.31969V3.67743ZM21.5953 26.129H4.59828V6.48388H7.43112V9.29033H18.7625V6.48388H21.5953V26.129Z" fill="#797D90"/>
</svg>
