<svg width="17" height="21" viewBox="0 0 17 21" fill="none" xmlns="http://www.w3.org/2000/svg">
<path d="M8.5 0L0 3.81818V9.54545C0 14.8432 3.62667 19.7973 8.5 21C13.3733 19.7973 17 14.8432 17 9.54545V3.81818L8.5 0ZM8.5 2.08091L15.1111 5.05909V9.75546C15.1111 11.3782 14.6389 13.0295 13.8361 14.4805C12.2778 13.3064 9.69 12.8864 8.5 12.8864C7.31 12.8864 4.72222 13.3064 3.16389 14.4805C2.36111 13.0295 1.88889 11.3782 1.88889 9.75546V5.05909L8.5 2.08091ZM8.5 4.77273C7.62331 4.77273 6.78253 5.12471 6.16262 5.75126C5.54271 6.3778 5.19444 7.22757 5.19444 8.11364C5.19444 8.9997 5.54271 9.84947 6.16262 10.476C6.78253 11.1026 7.62331 11.4545 8.5 11.4545C9.37669 11.4545 10.2175 11.1026 10.8374 10.476C11.4573 9.84947 11.8056 8.9997 11.8056 8.11364C11.8056 7.22757 11.4573 6.3778 10.8374 5.75126C10.2175 5.12471 9.37669 4.77273 8.5 4.77273ZM8.5 6.68182C8.87572 6.68182 9.23606 6.83267 9.50173 7.10119C9.76741 7.36971 9.91667 7.73389 9.91667 8.11364C9.91667 8.49338 9.76741 8.85757 9.50173 9.12608C9.23606 9.3946 8.87572 9.54545 8.5 9.54545C8.12428 9.54545 7.76394 9.3946 7.49826 9.12608C7.23259 8.85757 7.08333 8.49338 7.08333 8.11364C7.08333 7.73389 7.23259 7.36971 7.49826 7.10119C7.76394 6.83267 8.12428 6.68182 8.5 6.68182ZM8.5 14.7955C9.98278 14.7955 11.9378 15.3777 12.7783 16.0745C11.6072 17.5445 10.1056 18.6614 8.5 19.0909C6.89444 18.6614 5.39278 17.5445 4.22167 16.0745C5.07167 15.3777 7.01722 14.7955 8.5 14.7955Z" fill="white"/>
</svg>
