<svg width="21" height="25" viewBox="0 0 21 25" fill="none" xmlns="http://www.w3.org/2000/svg">
<path d="M10.5 -3.8147e-06L0 4.54545V11.3636C0 17.6705 4.48 23.5682 10.5 25C16.52 23.5682 21 17.6705 21 11.3636V4.54545L10.5 -3.8147e-06ZM10.5 2.47727L18.6667 6.02272V11.6136C18.6667 13.5455 18.0833 15.5114 17.0917 17.2386C15.1667 15.8409 11.97 15.3409 10.5 15.3409C9.03 15.3409 5.83333 15.8409 3.90833 17.2386C2.91667 15.5114 2.33333 13.5455 2.33333 11.6136V6.02272L10.5 2.47727ZM10.5 5.68181C9.41703 5.68181 8.37842 6.10085 7.61265 6.84673C6.84687 7.59261 6.41667 8.60425 6.41667 9.65909C6.41667 10.7139 6.84687 11.7256 7.61265 12.4714C8.37842 13.2173 9.41703 13.6364 10.5 13.6364C11.583 13.6364 12.6216 13.2173 13.3874 12.4714C14.1531 11.7256 14.5833 10.7139 14.5833 9.65909C14.5833 8.60425 14.1531 7.59261 13.3874 6.84673C12.6216 6.10085 11.583 5.68181 10.5 5.68181ZM10.5 7.95454C10.9641 7.95454 11.4092 8.13413 11.7374 8.45379C12.0656 8.77346 12.25 9.20701 12.25 9.65909C12.25 10.1112 12.0656 10.5447 11.7374 10.8644C11.4092 11.184 10.9641 11.3636 10.5 11.3636C10.0359 11.3636 9.59075 11.184 9.26256 10.8644C8.93437 10.5447 8.75 10.1112 8.75 9.65909C8.75 9.20701 8.93437 8.77346 9.26256 8.45379C9.59075 8.13413 10.0359 7.95454 10.5 7.95454ZM10.5 17.6136C12.3317 17.6136 14.7467 18.3068 15.785 19.1364C14.3383 20.8864 12.4833 22.2159 10.5 22.7273C8.51667 22.2159 6.66167 20.8864 5.215 19.1364C6.265 18.3068 8.66833 17.6136 10.5 17.6136Z" fill="#797D90"/>
</svg>
