<svg width="24" height="18" viewBox="0 0 24 18" fill="none" xmlns="http://www.w3.org/2000/svg">
<path d="M12.5 3.86667C14.2552 3.86096 15.9763 4.33966 17.4657 5.24774C18.955 6.15582 20.152 7.45642 20.9191 9C19.3441 12.1453 16.1273 14.1333 12.5 14.1333C8.87273 14.1333 5.65591 12.1453 4.08091 9C4.848 7.45642 6.04501 6.15582 7.53434 5.24774C9.02367 4.33966 10.7448 3.86096 12.5 3.86667ZM12.5 2C7.72727 2 3.65136 4.90267 2 9C3.65136 13.0973 7.72727 16 12.5 16C17.2727 16 21.3486 13.0973 23 9C21.3486 4.90267 17.2727 2 12.5 2ZM12.5 6.66667C13.1329 6.66667 13.7399 6.9125 14.1874 7.35008C14.6349 7.78767 14.8864 8.38116 14.8864 9C14.8864 9.61884 14.6349 10.2123 14.1874 10.6499C13.7399 11.0875 13.1329 11.3333 12.5 11.3333C11.8671 11.3333 11.2601 11.0875 10.8126 10.6499C10.3651 10.2123 10.1136 9.61884 10.1136 9C10.1136 8.38116 10.3651 7.78767 10.8126 7.35008C11.2601 6.9125 11.8671 6.66667 12.5 6.66667ZM12.5 4.8C10.1327 4.8 8.20455 6.68533 8.20455 9C8.20455 11.3147 10.1327 13.2 12.5 13.2C14.8673 13.2 16.7955 11.3147 16.7955 9C16.7955 6.68533 14.8673 4.8 12.5 4.8Z" fill="#A8AEC7"/>
</svg>
