<svg width="27" height="27" viewBox="0 0 27 27" fill="none" xmlns="http://www.w3.org/2000/svg">
<path d="M13.6222 27L13.3015 23.1058H12.9808C9.94478 23.1058 7.36848 22.0349 5.25185 19.893C3.13522 17.7512 2.0769 15.1442 2.0769 12.0721C2.0769 9 3.13522 6.39303 5.25185 4.2512C7.36848 2.10937 9.94478 1.03846 12.9808 1.03846C14.4987 1.03846 15.915 1.3249 17.2294 1.89779C18.5447 2.47154 19.6997 3.2612 20.6943 4.26678C21.688 5.27322 22.468 6.44149 23.0341 7.77158C23.6011 9.10255 23.8846 10.5361 23.8846 12.0721C23.8846 15.3606 22.9118 18.3081 20.9662 20.9146C19.0206 23.522 16.5726 25.5505 13.6222 27ZM12.9487 19.1791C13.3121 19.1791 13.6222 19.0493 13.8787 18.7897C14.1353 18.53 14.2636 18.2163 14.2636 17.8486C14.2636 17.4808 14.1353 17.1671 13.8787 16.9074C13.6222 16.6478 13.3121 16.518 12.9487 16.518C12.5852 16.518 12.2752 16.6478 12.0186 16.9074C11.7621 17.1671 11.6338 17.4808 11.6338 17.8486C11.6338 18.2163 11.7621 18.53 12.0186 18.7897C12.2752 19.0493 12.5852 19.1791 12.9487 19.1791ZM12.9808 15.0577C13.2159 15.0577 13.4297 14.9712 13.6222 14.7981C13.8146 14.625 13.9429 14.387 14.007 14.0841C14.0498 13.8029 14.1673 13.5485 14.3598 13.3209C14.5522 13.0941 14.8836 12.7428 15.3539 12.2668C15.7388 11.8774 16.0595 11.4555 16.316 11.0012C16.5726 10.5469 16.7009 10.0601 16.7009 9.54086C16.7009 8.4375 16.3323 7.60976 15.5951 7.05764C14.8571 6.50639 13.9856 6.23077 12.9808 6.23077C12.2324 6.23077 11.5859 6.40384 11.0411 6.75C10.4955 7.09615 10.0517 7.52884 9.7096 8.04808C9.55994 8.28606 9.533 8.53485 9.62878 8.79447C9.72542 9.05408 9.9234 9.23798 10.2227 9.34615C10.4365 9.43269 10.6503 9.43269 10.8641 9.34615C11.0779 9.25961 11.2703 9.09735 11.4414 8.85937C11.6124 8.62139 11.8211 8.42668 12.0674 8.27524C12.3128 8.1238 12.6173 8.04808 12.9808 8.04808C13.558 8.04808 13.9912 8.21033 14.2802 8.53485C14.5684 8.85937 14.7125 9.21634 14.7125 9.60577C14.7125 9.97356 14.6056 10.3033 14.3918 10.5949C14.178 10.8874 13.9215 11.1851 13.6222 11.488C13.0235 12.0072 12.6224 12.4291 12.4189 12.7536C12.2162 13.0781 12.0935 13.5216 12.0507 14.0841C12.0293 14.3437 12.1097 14.5709 12.2919 14.7656C12.4732 14.9603 12.7028 15.0577 12.9808 15.0577ZM16.1878 20.5096V22.262C17.7058 20.9639 18.9402 19.4443 19.8912 17.7032C20.8431 15.9612 21.319 14.0841 21.319 12.0721C21.319 9.71394 20.5121 7.71793 18.8983 6.08408C17.2837 4.4511 15.3112 3.63461 12.9808 3.63461C10.6503 3.63461 8.67822 4.4511 7.06445 6.08408C5.44983 7.71793 4.64252 9.71394 4.64252 12.0721C4.64252 14.4303 5.44983 16.4263 7.06445 18.0601C8.67822 19.6931 10.6503 20.5096 12.9808 20.5096H16.1878Z" fill="#797D90"/>
</svg>
