<svg width="23" height="23" viewBox="0 0 23 23" fill="none" xmlns="http://www.w3.org/2000/svg">
<path d="M5.42597 11.8832L8.27033 9.03943C8.33101 8.97877 8.36135 8.88777 8.3386 8.79676C8.12622 7.99292 8.36894 7.14358 8.97573 6.57482C9.58253 6.00607 10.4472 5.81648 11.2361 6.0819L10.159 7.15116C9.87076 7.44692 9.87076 7.91709 10.159 8.21284L10.5155 8.56926C10.8113 8.85743 11.2816 8.85743 11.5774 8.56926L12.6469 7.5C12.9123 8.28868 12.7227 9.15318 12.1538 9.75986C11.585 10.3665 10.7279 10.6092 9.93144 10.3893C9.848 10.3665 9.7494 10.3893 9.68872 10.4575L6.79885 13.3468C6.25273 12.9373 5.79764 12.4444 5.42597 11.8832ZM12.5103 3.46562C12.6165 5.08847 13.9135 6.37765 15.5367 6.49141C15.8477 7.20425 16.007 7.97776 15.9994 8.75126C15.9994 11.9287 13.4205 14.4995 10.25 14.4995C9.17294 14.4995 8.12622 14.1962 7.21602 13.6274L9.94661 10.8974C10.9857 11.1173 12.0628 10.7154 12.7075 9.87361C13.3523 9.02427 13.4509 7.88675 12.9578 6.93883C12.9199 6.87058 12.8516 6.81749 12.7758 6.80991C12.6999 6.79474 12.6165 6.82508 12.5634 6.87816L11.2285 8.21284C11.1299 8.31143 10.9706 8.31143 10.872 8.21284L10.5155 7.85642C10.4169 7.75784 10.4169 7.59858 10.5155 7.5L11.8504 6.16532C11.9035 6.11224 11.9339 6.02882 11.9187 5.95298C11.9035 5.87715 11.858 5.8089 11.7898 5.77098C11.4484 5.58898 11.0692 5.4904 10.6823 5.46764C9.82525 5.41456 8.9909 5.77098 8.4372 6.41557C7.87591 7.06775 7.65595 7.93984 7.8304 8.7816L5.17567 11.4358C4.23513 9.65369 4.29581 7.50758 5.33495 5.77856C6.37409 4.04954 8.24758 2.99545 10.2652 2.99545C11.0313 3.00303 11.7973 3.16229 12.5103 3.46562ZM13.0033 3.25329C13.0033 1.7366 14.2321 0.500506 15.7567 0.500506C17.2737 0.500506 18.51 1.72902 18.51 3.25329C18.51 4.76997 17.2813 5.99848 15.7567 6.00607C14.2321 6.00607 13.0033 4.76997 13.0033 3.25329ZM12.5179 2.9272C11.7973 2.64661 11.0237 2.50253 10.25 2.50253C6.79885 2.50253 4 5.30081 4 8.75126C4 12.2017 6.79885 15 10.25 15C13.7012 15 16.5 12.2017 16.5 8.75126C16.5 7.97776 16.3559 7.20425 16.0753 6.48382C17.797 6.3094 19.0865 4.81547 18.9955 3.08645C18.912 1.35743 17.4785 0 15.7491 0C14.0804 0.00758342 12.6848 1.26643 12.5179 2.9272Z" fill="black"/>
</svg>
