<svg width="16" height="12" viewBox="0 0 16 12" fill="none" xmlns="http://www.w3.org/2000/svg">
<path d="M5.63547 8.19802L13.3596 0.435643C13.6486 0.145214 14.0164 0 14.4631 0C14.9097 0 15.2775 0.145214 15.5665 0.435643C15.8555 0.726072 16 1.09571 16 1.54455C16 1.9934 15.8555 2.36304 15.5665 2.65346L6.73892 11.5248C6.42364 11.8416 6.05583 12 5.63547 12C5.21511 12 4.84729 11.8416 4.53202 11.5248L0.433497 7.40594C0.144499 7.11551 0 6.74587 0 6.29703C0 5.84818 0.144499 5.47855 0.433497 5.18812C0.722495 4.89769 1.09031 4.75248 1.53695 4.75248C1.98358 4.75248 2.3514 4.89769 2.64039 5.18812L5.63547 8.19802Z" fill="#0DA036"/>
</svg>
