<svg width="20" height="18" viewBox="0 0 20 18" fill="none" xmlns="http://www.w3.org/2000/svg">
<path d="M7.91722 11.8699H1.98817C1.72609 11.8699 1.47475 11.7658 1.28943 11.5805C1.10411 11.3952 1 11.1438 1 10.8817V2.97635C1 2.71427 1.10411 2.46292 1.28943 2.2776C1.47475 2.09229 1.72609 1.98817 1.98817 1.98817H7.91722M4.9527 15.8226H7.91722M14.8344 4.9527V4.96258M10.8817 1.98817C10.8817 1.72609 10.9859 1.47475 11.1712 1.28943C11.3565 1.10411 11.6078 1 11.8699 1H17.799C18.0611 1 18.3124 1.10411 18.4977 1.28943C18.683 1.47475 18.7871 1.72609 18.7871 1.98817V15.8226C18.7871 16.0847 18.683 16.336 18.4977 16.5214C18.3124 16.7067 18.0611 16.8108 17.799 16.8108H11.8699C11.6078 16.8108 11.3565 16.7067 11.1712 16.5214C10.9859 16.336 10.8817 16.0847 10.8817 15.8226V1.98817Z" stroke="white" stroke-width="1.66667" stroke-linecap="round" stroke-linejoin="round"/>
<path d="M6.92889 11.8699V15.8226M13.8461 12.858C13.8461 13.1201 13.9502 13.3715 14.1355 13.5568C14.3209 13.7421 14.5722 13.8462 14.8343 13.8462C15.0964 13.8462 15.3477 13.7421 15.533 13.5568C15.7184 13.3715 15.8225 13.1201 15.8225 12.858C15.8225 12.596 15.7184 12.3446 15.533 12.1593C15.3477 11.974 15.0964 11.8699 14.8343 11.8699C14.5722 11.8699 14.3209 11.974 14.1355 12.1593C13.9502 12.3446 13.8461 12.596 13.8461 12.858Z" stroke="white" stroke-width="1.66667" stroke-linecap="round" stroke-linejoin="round"/>
</svg>
