<svg width="16" height="16" viewBox="0 0 16 16" fill="none" xmlns="http://www.w3.org/2000/svg">
<path fill-rule="evenodd" clip-rule="evenodd" d="M7.83941 0.000122542C9.87553 0.000122542 11.9117 0.000122542 13.9479 0C14.2034 0 14.4565 0.0221801 14.7016 0.0969309C15.2332 0.258932 15.5147 0.640099 15.625 1.16538C15.6688 1.3737 15.6813 1.586 15.6817 1.79831C15.6849 3.22409 15.6873 4.64999 15.6874 6.07589C15.6876 8.6728 15.6879 11.2697 15.6825 13.8666C15.6818 14.2301 15.6624 14.5976 15.483 14.9288C15.2839 15.296 15.0113 15.5867 14.5975 15.7145C14.5227 15.7376 14.4446 15.7639 14.368 15.7639C14.1914 15.764 14.0195 15.8078 13.8434 15.8078C9.85617 15.8075 5.86897 15.8098 1.8817 15.8035C1.55741 15.8029 1.22785 15.7793 0.919803 15.6474C0.858524 15.621 0.796631 15.5989 0.742706 15.5579C0.350518 15.2591 0.0841978 14.8864 0.0270855 14.382C0.00655689 14.2002 0 14.0193 0 13.8374C0.000612793 9.79645 0.000980469 5.7555 0.00306397 1.71455C0.00324781 1.48013 0.0056377 1.24166 0.0777635 1.01728C0.269813 0.419462 0.690067 0.0930708 1.31303 0.0267755C1.45784 0.0113352 1.60386 0.00134796 1.74934 0.00122542C3.77922 -0.000428898 5.8094 0.000122542 7.83941 0.000122542Z" fill="#FB7A24"/>
<path fill-rule="evenodd" clip-rule="evenodd" d="M7.89127 10.0554C7.84672 10.3283 7.8154 10.575 7.71736 10.8023C7.25837 11.8675 6.47608 12.5165 5.30332 12.6457C3.91712 12.7984 2.63675 11.9429 2.25179 10.6143C2.11226 10.1329 2.12623 9.64203 2.17685 9.15198C2.23083 8.62836 2.38513 8.13182 2.62602 7.66334C2.66052 7.59637 2.65985 7.54582 2.61671 7.48093C2.24683 6.92471 2.10331 6.31023 2.1554 5.64697C2.18328 5.29245 2.26938 4.95338 2.43011 4.63575C2.90129 3.70535 3.93575 2.91575 5.32121 3.04687C6.53944 3.16206 7.66778 4.21279 7.8439 5.39447C7.85278 5.45378 7.86945 5.51199 7.88894 5.59948C7.91811 5.44103 7.93919 5.31028 7.96646 5.18076C8.19337 4.10722 9.24438 2.98388 10.7341 2.96997C12.244 2.956 13.3622 4.14007 13.5731 5.23976C13.6623 5.7045 13.6468 6.16881 13.5733 6.63294C13.5005 7.0947 13.3628 7.54386 13.1644 7.96712C13.1205 8.0608 13.1251 8.12826 13.1813 8.21527C13.5065 8.71916 13.65 9.27232 13.6316 9.87302C13.5931 11.1264 12.7065 12.2505 11.4867 12.5444C9.78376 12.9548 8.47832 11.9364 8.03901 10.7044C7.96732 10.5039 7.93343 10.2945 7.89133 10.0554H7.89127ZM10.9852 7.85334C11.0034 7.78245 11.0583 7.73999 11.0978 7.68754C11.5248 7.12017 11.7494 6.48644 11.6992 5.77282C11.6627 5.25201 11.2343 4.88512 10.7157 4.90454C10.1967 4.92397 9.8057 5.32413 9.79834 5.84334C9.79779 5.88586 9.80036 5.92845 9.79773 5.97066C9.762 6.524 9.45665 6.82711 8.99393 6.86093C8.90942 6.86712 8.82467 6.87466 8.74005 6.8749C8.13951 6.87625 7.53903 6.876 6.93843 6.87545C6.67616 6.87521 6.41609 6.90376 6.16631 6.98084C5.00035 7.3405 4.32046 8.13776 4.09532 9.32599C4.05071 9.56109 4.01057 9.80507 4.08766 10.0465C4.19827 10.3929 4.40447 10.6505 4.76945 10.7366C5.14773 10.8259 5.47723 10.7271 5.73901 10.43C5.90821 10.2379 5.96158 10.0097 5.9742 9.75924C6.00693 9.11497 6.35781 8.79293 6.94303 8.79777C7.84071 8.80525 8.73852 8.79936 9.63632 8.80004C9.79565 8.8001 9.79712 8.80224 9.79791 8.95983C9.79945 9.25087 9.7905 9.54234 9.80171 9.83307C9.81997 10.3077 10.2377 10.7023 10.7219 10.7162C11.2212 10.7304 11.6663 10.3612 11.6988 9.87915C11.7269 9.46189 11.7251 9.04212 11.6977 8.62456C11.6765 8.30135 11.5016 8.07097 11.2053 7.93728C11.1342 7.9053 11.0594 7.88134 10.9852 7.85334ZM5.35779 6.87398C5.55089 6.87398 5.7085 6.87221 5.86598 6.87478C5.94405 6.876 5.97298 6.84243 5.97237 6.7659C5.96979 6.46304 5.98542 6.15919 5.96611 5.85743C5.94062 5.45935 5.7289 5.17156 5.35822 5.02641C4.97817 4.87759 4.63035 4.96251 4.33621 5.24319C4.04078 5.52522 4.00138 5.87012 4.10475 6.24755C4.19974 6.59446 4.42402 6.79151 4.77687 6.85107C4.98179 6.88556 5.18787 6.86902 5.35779 6.87398Z" fill="white"/>
</svg>
